<?xml version="1.0" encoding="utf-8"?>
<!-- Generator: Adobe Illustrator 15.0.0, SVG Export Plug-In . SVG Version: 6.00 Build 0)  -->
<!DOCTYPE svg PUBLIC "-//W3C//DTD SVG 1.1//EN" "http://www.w3.org/Graphics/SVG/1.1/DTD/svg11.dtd">
<svg version="1.1" id="Layer_1" xmlns="http://www.w3.org/2000/svg" xmlns:xlink="http://www.w3.org/1999/xlink" x="0px" y="0px"
	 width="202px" height="189px" viewBox="84.5 207.5 202 189" enable-background="new 84.5 207.5 202 189" xml:space="preserve">
<path id="LOGO.cdr" fill="#FEFEFE" d="M224.702,281.622c-0.283,1.729-0.539,2.154-1.275,3.6c-0.397,0.737-1.531,1.502-2.381,1.701
	c-0.199,0.057-0.369,0.085-0.567,0.142c0-2.721,0.454-3.43,2.693-4.649C223.682,282.161,224.192,281.905,224.702,281.622z
	 M149.103,277.03c0.396,2.24,0.624,4.592,2.721,5.159c0-1.559,0.198-2.523-0.822-3.827L149.103,277.03z M152.362,278.617
	l-0.028,3.146c0.085-1.842,0.567-2.409,2.268-3.316c0.425-0.227,0.851-0.454,1.275-0.68c-0.255,1.445-0.453,1.814-1.077,3.004
	c-0.312,0.624-1.275,1.248-1.984,1.417l-0.482,0.113v2.495c0.17-1.275,0.822-1.956,2.324-2.948c0.51-0.34,0.992-0.652,1.474-0.964
	c-0.142,1.729-0.369,2.211-0.992,3.714c-0.34,0.793-1.389,1.672-2.239,1.956c-0.17,0.085-0.369,0.142-0.567,0.199v-0.028v3.43
	c0.085-1.928,0.68-2.636,2.58-3.742c0.51-0.312,1.021-0.595,1.53-0.879c-0.255,1.729-0.51,2.183-1.19,3.657
	c-0.368,0.766-1.474,1.559-2.324,1.814l-0.595,0.17v1.474c0.028,0.482,0.057,0.964,0.085,1.446c0.283-0.907,0.964-1.531,2.211-2.381
	c0.482-0.312,0.964-0.624,1.474-0.964c-0.17,1.757-0.397,2.211-1.021,3.713c-0.312,0.794-1.361,1.672-2.211,1.984l-0.284,0.085
	c0.057,0.766,0.142,1.531,0.199,2.296c0.283-0.907,0.963-1.502,2.183-2.353c0.51-0.312,0.992-0.624,1.474-0.936
	c-0.17,1.729-0.368,2.183-0.992,3.713c-0.34,0.794-1.389,1.672-2.211,1.956l-0.198,0.085c0.34,3.005,0.822,6.066,1.417,9.071
	c0.142-1.021,0.708-1.785,1.871-2.947c0.454-0.426,0.907-0.852,1.333-1.305c0.142,1.814,0,2.354-0.397,4.025
	c-0.198,0.879-1.134,1.984-1.928,2.494l-0.34,0.17c0.227,0.965,0.482,1.899,0.737,2.835c-0.028-1.446,0.595-2.381,2.069-3.854
	c0.482-0.454,0.992-0.936,1.474-1.418c0.142,1.984-0.028,2.58-0.425,4.394c-0.227,0.964-1.247,2.212-2.126,2.722l-0.369,0.227
	c0.567,1.814,1.219,3.572,1.956,5.272c-0.765-2.977-0.425-3.94,1.701-6.038c0.482-0.481,0.964-0.963,1.474-1.417
	c0.142,1.984-0.028,2.552-0.454,4.394c-0.198,0.964-1.247,2.183-2.098,2.721l-0.624,0.341c0.539,1.247,1.105,2.466,1.729,3.628
	c1.616,2.977,1.304,2.552,2.353,3.884c-0.482-2.041-0.085-2.976,1.559-4.847c0.454-0.454,0.878-0.936,1.332-1.418
	c0.227,1.871,0.113,2.41-0.198,4.167c-0.142,0.936-1.049,2.154-1.843,2.722l-0.255,0.17c0.142,0.142,0.255,0.312,0.397,0.482
	l1.984,2.721c-0.51-1.559-0.17-2.58,1.049-4.479c0.369-0.539,0.737-1.105,1.105-1.645c0.482,1.786,0.454,2.354,0.425,4.139
	c-0.028,0.964-0.765,2.324-1.474,3.033l-0.198,0.198l1.531,2.126l0.312,0.34c-0.454-1.36-0.114-2.381,0.907-4.223
	c0.312-0.596,0.652-1.162,0.992-1.729c0.595,1.757,0.595,2.324,0.652,4.11c0.028,0.936-0.595,2.353-1.247,3.117l-0.113,0.086
	l2.665,3.004c-1.105-1.559-1.049-2.664-0.312-5.188c0.227-0.68,0.454-1.359,0.652-2.041c1.021,1.645,1.134,2.24,1.587,4.082
	c0.227,0.965-0.113,2.608-0.652,3.572l-0.34,0.596l0.028,0.057l1.672,1.615c-0.51-1.219-0.284-2.239,0.482-4.139
	c0.255-0.596,0.539-1.219,0.793-1.814c0.766,1.616,0.822,2.184,1.077,3.912c0.142,0.936-0.312,2.41-0.878,3.231l-0.085,0.114
	l2.551,2.465l6.69,5.585c0.34,0.227,0.624,0.425,0.851,0.595c0.198-0.141,0.453-0.312,0.737-0.481l6.661-5.612l2.58-2.467
	l-0.085-0.113c-0.567-0.822-1.049-2.296-0.907-3.203c0.255-1.758,0.312-2.296,1.106-3.939c0.255,0.623,0.51,1.219,0.765,1.813
	c0.765,1.899,0.992,2.92,0.482,4.139l1.672-1.616l0.057-0.027l-0.369-0.624c-0.539-0.936-0.878-2.579-0.652-3.571
	c0.454-1.843,0.567-2.41,1.587-4.082c0.227,0.68,0.425,1.389,0.652,2.068c0.766,2.495,0.794,3.629-0.312,5.16l2.665-3.005
	l-0.085-0.085c-0.681-0.737-1.304-2.184-1.276-3.119c0.057-1.785,0.057-2.352,0.681-4.109c0.312,0.566,0.652,1.134,0.992,1.729
	c1.02,1.843,1.332,2.863,0.907,4.225l0.284-0.341l1.559-2.126l-0.227-0.198c-0.708-0.708-1.417-2.069-1.445-3.005
	c-0.057-1.785-0.085-2.353,0.425-4.167c0.34,0.538,0.709,1.105,1.077,1.644c1.219,1.928,1.559,2.92,1.077,4.508l1.984-2.75
	c0.113-0.17,0.255-0.34,0.369-0.481l-0.255-0.17c-0.793-0.538-1.701-1.786-1.842-2.693c-0.312-1.757-0.425-2.324-0.17-4.194
	c0.425,0.48,0.85,0.963,1.304,1.445c1.644,1.871,2.069,2.807,1.559,4.847c1.049-1.36,0.765-0.907,2.353-3.911
	c0.624-1.162,1.219-2.381,1.729-3.601l-0.595-0.368c-0.879-0.539-1.899-1.758-2.126-2.722c-0.425-1.843-0.567-2.409-0.425-4.394
	c0.482,0.482,0.964,0.936,1.445,1.418c2.155,2.098,2.466,3.061,1.729,6.037c0.708-1.701,1.36-3.458,1.927-5.272l-0.34-0.198
	c-0.879-0.539-1.928-1.758-2.126-2.721c-0.425-1.844-0.595-2.41-0.454-4.395c0.51,0.453,0.992,0.936,1.474,1.418
	c1.502,1.474,2.098,2.381,2.069,3.826c0.255-0.936,0.51-1.871,0.737-2.834l-0.34-0.17c-0.793-0.482-1.729-1.616-1.927-2.495
	c-0.369-1.673-0.51-2.183-0.397-3.997c0.454,0.426,0.907,0.851,1.332,1.275c1.163,1.162,1.758,1.928,1.871,2.948
	c0.624-3.005,1.077-6.038,1.417-9.071l-0.17-0.057c-0.85-0.312-1.899-1.19-2.239-1.984c-0.595-1.502-0.822-1.984-0.992-3.713
	c0.51,0.312,0.992,0.624,1.474,0.964c1.247,0.822,1.899,1.446,2.183,2.325c0.085-0.766,0.142-1.531,0.198-2.268l-0.283-0.113
	c-0.822-0.283-1.899-1.162-2.211-1.956c-0.624-1.53-0.851-1.984-0.992-3.713c0.482,0.312,0.964,0.624,1.474,0.936
	c1.247,0.851,1.899,1.474,2.183,2.381c0.028-0.482,0.057-0.964,0.085-1.446v-1.474l-0.595-0.17
	c-0.822-0.227-1.928-1.049-2.296-1.814c-0.709-1.474-0.936-1.927-1.191-3.628c0.482,0.283,0.992,0.567,1.502,0.85
	c1.928,1.105,2.523,1.814,2.58,3.742v-3.43v0.057c-0.17-0.085-0.369-0.142-0.567-0.199c-0.822-0.312-1.899-1.19-2.211-1.984
	c-0.624-1.502-0.851-1.956-1.021-3.713c0.482,0.34,0.992,0.652,1.474,0.963c1.502,1.021,2.154,1.673,2.324,2.948v-2.495
	l-0.482-0.085c-0.708-0.198-1.644-0.822-1.984-1.446c-0.595-1.19-0.822-1.559-1.077-2.976c0.425,0.198,0.851,0.425,1.276,0.652
	c1.729,0.907,2.183,1.502,2.268,3.316l-0.028-3.146l0.482,3.289c0.397,7.37,0.369,6.576,0.085,13.861v0.057
	c0.142-1.956,0.737-2.636,2.693-3.685c0.51-0.255,1.021-0.51,1.531-0.794c-0.312,1.701-0.567,2.154-1.304,3.572
	c-0.369,0.766-1.502,1.531-2.353,1.729l-0.567,0.142l-0.057,1.927c-0.113,2.098-0.454,4.677-0.936,7.37
	c0.397-1.701,1.134-2.239,3.118-2.891c0.539-0.199,1.077-0.369,1.616-0.539c-0.539,1.644-0.851,2.041-1.786,3.316
	c-0.482,0.68-1.701,1.219-2.551,1.275c-0.199,0.028-0.397,0.028-0.624,0.028h0.028c-0.737,3.884-1.672,7.823-2.58,10.716
	l-2.636,7.199c-1.247,2.977-4.054,7.824-5.839,10.46c-0.284,0.425-0.595,0.851-0.907,1.304c2.041-1.842,2.92-1.871,5.357-0.538
	c0.539,0.312,1.077,0.624,1.616,0.935c-1.474,0.852-1.984,0.908-3.571,1.163c-0.851,0.142-2.183-0.425-2.92-1.077l-0.482-0.482
	c-0.936,1.275-2.069,2.693-3.231,4.11c2.069-1.644,3.005-1.587,5.414-0.142c0.567,0.369,1.134,0.709,1.701,1.077
	c-1.616,0.822-2.154,0.879-3.827,1.077c-0.907,0.113-2.268-0.539-3.033-1.275l-0.482-0.482c-1.587,1.928-3.26,3.742-4.592,5.018
	l-10.8,9.27c-0.284,0.17-0.567,0.34-0.851,0.51c-0.085,0.057-0.142,0.143-0.227,0.199c0.227,0.368,0.396,0.793,0.765,1.389
	l-0.539,2.977c-0.198-1.135-0.68-2.211-1.333-3.118c-0.68,0.907-1.19,2.04-1.389,3.203l-0.539-2.977
	c0.397-0.651,0.567-1.105,0.822-1.503c-0.113-0.084-0.198-0.17-0.283-0.254c-0.284-0.171-0.567-0.341-0.851-0.511l-10.828-9.27
	c-1.304-1.275-2.977-3.118-4.592-5.046l-0.482,0.482c-0.737,0.736-2.126,1.389-3.004,1.304c-1.701-0.227-2.24-0.255-3.855-1.105
	c0.567-0.341,1.134-0.681,1.701-1.049c2.438-1.446,3.374-1.503,5.415,0.142c-1.163-1.417-2.268-2.834-3.203-4.11l-0.51,0.481
	c-0.737,0.652-2.069,1.22-2.892,1.078c-1.587-0.256-2.098-0.312-3.6-1.162c0.539-0.312,1.077-0.624,1.644-0.936
	c2.41-1.332,3.289-1.305,5.358,0.538c-0.34-0.453-0.652-0.907-0.936-1.304c-1.786-2.637-4.564-7.512-5.811-10.488l-2.665-7.199
	c-0.879-2.863-1.843-6.832-2.551-10.688l0,0c-0.198,0-0.397,0-0.595-0.028c-0.879-0.057-2.098-0.595-2.58-1.275
	c-0.936-1.304-1.247-1.672-1.786-3.316c0.539,0.17,1.105,0.34,1.644,0.51c1.956,0.68,2.693,1.219,3.09,2.891
	c-0.454-2.665-0.794-5.244-0.936-7.342l-0.028-1.927l-0.595-0.142c-0.851-0.227-1.956-0.964-2.353-1.729
	c-0.737-1.417-0.992-1.871-1.304-3.572c0.51,0.255,1.021,0.539,1.531,0.794c1.956,1.049,2.579,1.729,2.693,3.685v-0.085
	c-0.255-7.285-0.312-6.463,0.113-13.833L152.362,278.617z M163.19,320.258c0.227,1.843,0.113,2.41-0.17,4.168
	c-0.17,0.935-1.077,2.154-1.871,2.721c-0.17,0.113-0.368,0.255-0.539,0.369c-0.878-2.779-0.624-3.686,1.276-5.84
	C162.312,321.193,162.765,320.712,163.19,320.258z M156.869,300.302c0.113,1.814-0.028,2.325-0.396,3.997
	c-0.227,0.878-1.163,2.013-1.956,2.494c-0.17,0.114-0.369,0.199-0.539,0.312c-0.708-2.721-0.397-3.6,1.531-5.527
	C155.962,301.153,156.416,300.728,156.869,300.302z M152.901,272.523c-0.737,1.644-1.077,2.211-1.077,4.11l0.227,1.871h0.595
	c0.737-1.672,0.907-2.466,0.595-4.507L152.901,272.523z M168.718,349.71c1.502,0.567,1.984,0.567,3.486,0.567
	c0.794,0,1.984-0.709,2.58-1.445c0.142-0.17,0.284-0.341,0.425-0.511c-2.154-1.417-2.948-1.304-5.074,0.283
	C169.653,348.973,169.2,349.342,168.718,349.71z M164.466,345.912c1.616,0.85,2.154,0.879,3.855,1.076
	c0.879,0.114,2.268-0.538,3.033-1.275c0.17-0.17,0.34-0.34,0.51-0.538c-2.24-1.843-3.175-1.843-5.698-0.312
	C165.6,345.203,165.033,345.543,164.466,345.912z M154.856,332.277c1.446,1.021,1.928,1.105,3.487,1.53
	c0.822,0.198,2.211-0.227,2.977-0.821c0.198-0.143,0.368-0.284,0.539-0.426c-1.928-2.041-2.778-2.126-5.301-1.049
	C155.991,331.768,155.424,332.021,154.856,332.277z M152.702,327.118c1.304,1.162,1.786,1.332,3.289,1.956
	c0.793,0.34,2.211,0.085,3.061-0.396c0.17-0.143,0.369-0.256,0.567-0.369c-1.701-2.268-2.522-2.494-5.159-1.729
	C153.865,326.75,153.298,326.92,152.702,327.118z M150.633,321.59c1.163,1.361,1.645,1.588,3.062,2.382
	c0.766,0.425,2.183,0.368,3.062-0.028c0.227-0.085,0.425-0.17,0.624-0.256c-1.445-2.494-2.268-2.806-4.932-2.408
	C151.824,321.393,151.229,321.477,150.633,321.59z M149.244,315.496c0.964,1.559,1.389,1.871,2.693,2.92
	c0.68,0.538,2.098,0.736,3.033,0.51c0.198-0.057,0.425-0.113,0.624-0.17c-1.077-2.693-1.814-3.146-4.536-3.231
	C150.463,315.524,149.839,315.524,149.244,315.496z M148.139,309.345c0.765,1.644,1.162,2.013,2.296,3.203
	c0.595,0.652,1.956,1.049,2.892,0.992c0.198-0.028,0.425-0.057,0.624-0.085c-0.737-2.777-1.389-3.345-4.025-3.826
	C149.329,309.543,148.734,309.43,148.139,309.345z M147.572,296.107c0.312,1.701,0.567,2.154,1.304,3.572
	c0.397,0.765,1.502,1.531,2.353,1.729c0.198,0.057,0.396,0.085,0.595,0.142c0-2.722-0.482-3.43-2.721-4.649
	C148.592,296.646,148.082,296.391,147.572,296.107z M147.231,285.789c0.284,1.701,0.539,2.126,1.304,3.571
	c0.368,0.737,1.502,1.502,2.353,1.729c0.198,0.028,0.397,0.085,0.595,0.113c0-2.721-0.482-3.43-2.721-4.621
	C148.252,286.299,147.742,286.044,147.231,285.789z M147.345,281.537c0.312,1.701,0.567,2.154,1.304,3.571
	c0.368,0.766,1.502,1.502,2.353,1.729c0.199,0.057,0.397,0.085,0.595,0.142c0-2.721-0.482-3.43-2.721-4.649
	C148.365,282.076,147.855,281.792,147.345,281.537z M222.945,277.115c-0.397,2.24-0.624,4.592-2.721,5.188
	c0-1.559-0.198-2.523,0.822-3.855L222.945,277.115z M208.856,320.344c-0.227,1.871-0.113,2.409,0.199,4.166
	c0.142,0.936,1.049,2.154,1.842,2.722c0.199,0.142,0.369,0.255,0.567,0.368c0.879-2.777,0.624-3.685-1.275-5.839
	C209.735,321.307,209.31,320.825,208.856,320.344z M215.206,300.387c-0.142,1.814,0,2.325,0.397,3.997
	c0.199,0.907,1.134,2.013,1.928,2.495c0.198,0.113,0.369,0.227,0.567,0.34c0.68-2.75,0.397-3.6-1.559-5.527
	C216.085,301.238,215.66,300.812,215.206,300.387z M219.175,272.608c0.737,1.672,1.049,2.211,1.049,4.11l-0.227,1.871h-0.596
	c-0.737-1.672-0.878-2.466-0.595-4.507L219.175,272.608z M203.329,349.795c-1.502,0.596-1.956,0.567-3.487,0.567
	c-0.793,0.028-1.956-0.709-2.579-1.446c-0.142-0.17-0.255-0.34-0.397-0.51c2.126-1.418,2.948-1.304,5.045,0.283
	C202.394,349.059,202.875,349.427,203.329,349.795z M207.581,345.997c-1.616,0.851-2.154,0.878-3.827,1.077
	c-0.907,0.113-2.296-0.539-3.033-1.275c-0.17-0.17-0.34-0.341-0.51-0.511c2.239-1.87,3.146-1.843,5.669-0.34
	C206.447,345.288,207.014,345.656,207.581,345.997z M217.19,332.391c-1.417,0.992-1.927,1.105-3.486,1.502
	c-0.822,0.227-2.183-0.227-2.977-0.822c-0.17-0.141-0.34-0.283-0.539-0.425c1.928-2.013,2.778-2.126,5.301-1.049
	C216.057,331.852,216.624,332.135,217.19,332.391z M219.373,327.203c-1.332,1.19-1.814,1.361-3.316,1.956
	c-0.793,0.34-2.211,0.085-3.033-0.397c-0.198-0.113-0.396-0.227-0.595-0.368c1.701-2.268,2.551-2.466,5.159-1.729
	C218.183,326.834,218.778,327.033,219.373,327.203z M221.442,321.676c-1.19,1.36-1.644,1.588-3.09,2.381
	c-0.765,0.426-2.183,0.369-3.061,0c-0.199-0.113-0.397-0.198-0.595-0.283c1.445-2.467,2.239-2.807,4.932-2.41
	C220.224,321.477,220.819,321.59,221.442,321.676z M222.832,315.609c-0.992,1.531-1.417,1.843-2.721,2.892
	c-0.681,0.538-2.098,0.737-3.033,0.51c-0.198-0.028-0.425-0.085-0.624-0.142c1.077-2.693,1.842-3.175,4.535-3.26
	C221.613,315.609,222.208,315.609,222.832,315.609z M223.909,309.43c-0.766,1.645-1.134,2.013-2.296,3.232
	c-0.596,0.623-1.928,1.02-2.863,0.963c-0.227-0.028-0.425-0.057-0.652-0.057c0.737-2.807,1.417-3.373,4.025-3.855
	C222.718,309.629,223.313,309.516,223.909,309.43z M224.476,296.221c-0.312,1.701-0.567,2.126-1.304,3.571
	c-0.369,0.737-1.502,1.502-2.353,1.729c-0.198,0.028-0.397,0.085-0.595,0.113c0-2.721,0.482-3.43,2.721-4.621
	C223.455,296.73,223.965,296.476,224.476,296.221z M224.844,285.874c-0.312,1.701-0.567,2.154-1.304,3.572
	c-0.397,0.765-1.531,1.502-2.353,1.729c-0.199,0.028-0.397,0.085-0.595,0.142c0-2.721,0.454-3.43,2.693-4.649
	C223.824,286.413,224.334,286.129,224.844,285.874z"/>
<g>
	<path fill="#FEFEFE" d="M174.444,339.25h0.851H174.444z M176.485,339.25h19.134H176.485z M196.725,339.25h0.907H196.725z
		 M186.038,267.761c7.597,2.834,15.364,4.96,23.159,5.783c-2.891,3.94-5.131,13.011-7.03,20.58
		c-1.049,4.309-3.288,7.937-4.139,9.978l-0.113,0.284l-0.085,0.227c-3.515-0.539-5.131-1.502-8.504-1.587l0.113-0.964h0.992
		l0.028-1.19h-6.86v0.936h0.793l0.17,1.502c-1.134,0.17-3.062,0.567-4.082,0.765c-0.51,0.113-1.021,0.199-1.531,0.312
		c-0.369-1.984-0.936-4.082-2.013-6.662c-1.644-3.912-4.706-6.803-7.937-9.836c-1.757-1.672-3.572-3.374-5.188-5.301
		c-0.028,0-0.028-0.028-0.057-0.028c-1.332-1.616-2.438-3.572-3.543-5.5c-0.539-0.963-1.049-1.899-1.616-2.806
		C166.422,273.94,178.725,270.539,186.038,267.761z M183.6,333.751v-1.19h-0.34l0.198-0.369h0.539v1.56H183.6z M185.159,332.957
		c0.085,0,0.142-0.027,0.17-0.057c0.057-0.057,0.057-0.113,0.057-0.17c0-0.085,0-0.142-0.057-0.198
		c-0.028-0.028-0.085-0.057-0.17-0.057s-0.142,0.028-0.17,0.057c-0.057,0.057-0.057,0.113-0.057,0.198c0,0.057,0,0.113,0.057,0.17
		C185.017,332.93,185.074,332.957,185.159,332.957z M185.188,333.213c-0.028,0-0.057,0.027-0.085,0.027s-0.057,0-0.085,0
		c-0.142,0-0.255-0.057-0.34-0.141c-0.085-0.086-0.142-0.227-0.142-0.369c0-0.17,0.057-0.312,0.17-0.396
		c0.113-0.113,0.255-0.17,0.454-0.17c0.17,0,0.312,0.057,0.425,0.142c0.113,0.113,0.17,0.255,0.17,0.425
		c0,0.086-0.028,0.199-0.057,0.312c-0.057,0.084-0.113,0.227-0.227,0.396l-0.227,0.312h-0.425L185.188,333.213z M186.548,332.957
		c0.057,0,0.142-0.027,0.17-0.057c0.057-0.057,0.057-0.113,0.057-0.17c0-0.085,0-0.142-0.057-0.198
		c-0.057-0.028-0.114-0.057-0.17-0.057c-0.085,0-0.142,0.028-0.17,0.057c-0.057,0.057-0.085,0.113-0.085,0.198
		c0,0.057,0.028,0.113,0.085,0.17C186.406,332.93,186.463,332.957,186.548,332.957z M186.576,333.213
		c-0.028,0-0.057,0.027-0.085,0.027s-0.057,0-0.085,0c-0.142,0-0.255-0.057-0.34-0.141c-0.085-0.086-0.142-0.227-0.142-0.369
		c0-0.17,0.057-0.312,0.17-0.396c0.113-0.113,0.255-0.17,0.453-0.17c0.17,0,0.312,0.057,0.425,0.142
		c0.113,0.113,0.17,0.255,0.17,0.425c0,0.086-0.028,0.199-0.057,0.312c-0.057,0.084-0.113,0.227-0.227,0.396l-0.227,0.312h-0.425
		L186.576,333.213z M187.767,333.751v-1.19h-0.34l0.17-0.369h0.539v1.56H187.767z M190.375,331.143v-1.219h-0.34l0.17-0.368h0.539
		v1.587H190.375z M191.934,330.321c0.057,0,0.114,0,0.17-0.057c0.028-0.028,0.057-0.085,0.057-0.171c0-0.084-0.028-0.141-0.057-0.17
		c-0.057-0.057-0.113-0.084-0.17-0.084c-0.085,0-0.142,0.027-0.198,0.084c-0.028,0.029-0.057,0.086-0.057,0.17
		c0,0.086,0.028,0.143,0.057,0.171C191.792,330.321,191.849,330.321,191.934,330.321z M191.934,330.576
		c-0.028,0.028-0.057,0.028-0.085,0.028s-0.057,0-0.085,0c-0.113,0-0.227-0.028-0.312-0.142c-0.114-0.085-0.142-0.198-0.142-0.34
		c0-0.17,0.057-0.312,0.17-0.426c0.113-0.113,0.255-0.17,0.425-0.17c0.199,0,0.34,0.057,0.454,0.17
		c0.114,0.086,0.142,0.227,0.142,0.426c0,0.085,0,0.17-0.057,0.283c-0.028,0.113-0.113,0.227-0.227,0.396l-0.198,0.34h-0.454
		L191.934,330.576z M193.294,330.151c0.057,0,0.085,0,0.142-0.028c0.028-0.029,0.028-0.086,0.028-0.143s0-0.113-0.028-0.141
		c-0.028-0.029-0.085-0.029-0.142-0.029s-0.113,0-0.142,0.029c-0.028,0.027-0.057,0.084-0.057,0.141s0.028,0.113,0.057,0.143
		C193.181,330.151,193.238,330.151,193.294,330.151z M193.294,330.859c0.057,0,0.113-0.027,0.17-0.057
		c0.028-0.027,0.057-0.084,0.057-0.141c0-0.086-0.029-0.114-0.057-0.171c-0.057-0.028-0.113-0.057-0.17-0.057
		c-0.085,0-0.113,0.028-0.17,0.057c-0.028,0.057-0.057,0.085-0.057,0.171c0,0.057,0.028,0.113,0.057,0.141
		C193.181,330.832,193.238,330.859,193.294,330.859z M193.578,330.293c0.085,0.028,0.17,0.057,0.227,0.142
		c0.057,0.057,0.085,0.142,0.085,0.255c0,0.17-0.057,0.283-0.142,0.369c-0.113,0.084-0.255,0.113-0.454,0.113
		s-0.34-0.029-0.454-0.113c-0.113-0.086-0.142-0.199-0.142-0.369c0-0.113,0.028-0.198,0.085-0.255
		c0.057-0.085,0.113-0.113,0.227-0.142c-0.085-0.028-0.142-0.057-0.199-0.113c-0.028-0.057-0.057-0.143-0.057-0.227
		c0-0.113,0.057-0.227,0.142-0.312c0.085-0.057,0.227-0.113,0.397-0.113s0.312,0.057,0.397,0.113
		c0.085,0.086,0.142,0.199,0.142,0.312c0,0.084-0.028,0.17-0.085,0.227C193.72,330.236,193.663,330.265,193.578,330.293z
		 M194.684,330.321c0.085,0,0.142,0,0.17-0.057c0.057-0.028,0.085-0.085,0.085-0.171c0-0.084-0.028-0.141-0.085-0.17
		c-0.028-0.057-0.085-0.084-0.17-0.084c-0.057,0-0.142,0.027-0.17,0.084c-0.057,0.029-0.057,0.086-0.057,0.17
		c0,0.086,0,0.143,0.057,0.171C194.542,330.321,194.627,330.321,194.684,330.321z M194.712,330.576
		c-0.028,0.028-0.057,0.028-0.085,0.028s-0.057,0-0.085,0c-0.142,0-0.255-0.028-0.34-0.142c-0.085-0.085-0.113-0.198-0.113-0.34
		c0-0.17,0.057-0.312,0.142-0.426c0.113-0.113,0.255-0.17,0.454-0.17c0.17,0,0.34,0.057,0.425,0.17
		c0.114,0.086,0.17,0.227,0.17,0.426c0,0.085-0.028,0.17-0.057,0.283c-0.057,0.113-0.114,0.227-0.227,0.396l-0.227,0.34h-0.425
		L194.712,330.576z M177.023,331.143v-1.219h-0.34l0.198-0.368h0.539v1.587H177.023z M178.583,330.151c0.057,0,0.085,0,0.114-0.028
		c0.057-0.029,0.057-0.086,0.057-0.143s0-0.113-0.057-0.141c-0.029-0.029-0.057-0.029-0.114-0.029s-0.113,0-0.142,0.029
		c-0.028,0.027-0.057,0.084-0.057,0.141s0.028,0.113,0.057,0.143C178.469,330.151,178.526,330.151,178.583,330.151z
		 M178.583,330.859c0.057,0,0.114-0.027,0.142-0.057c0.057-0.027,0.057-0.084,0.057-0.141c0-0.086,0-0.114-0.057-0.171
		c-0.028-0.028-0.085-0.057-0.142-0.057c-0.085,0-0.142,0.028-0.17,0.057c-0.028,0.057-0.057,0.085-0.057,0.171
		c0,0.057,0.028,0.113,0.057,0.141C178.441,330.832,178.498,330.859,178.583,330.859z M178.838,330.293
		c0.113,0.028,0.198,0.057,0.255,0.142c0.057,0.057,0.085,0.142,0.085,0.255c0,0.17-0.057,0.283-0.17,0.369
		c-0.085,0.084-0.255,0.113-0.425,0.113c-0.198,0-0.34-0.029-0.454-0.113c-0.113-0.086-0.17-0.199-0.17-0.369
		c0-0.113,0.028-0.198,0.085-0.255c0.057-0.085,0.142-0.113,0.255-0.142c-0.085-0.028-0.142-0.057-0.199-0.113
		s-0.057-0.143-0.057-0.227c0-0.113,0.028-0.227,0.142-0.312c0.085-0.057,0.227-0.113,0.396-0.113c0.17,0,0.284,0.057,0.397,0.113
		c0.085,0.086,0.142,0.199,0.142,0.312c0,0.084-0.028,0.17-0.085,0.227C179.008,330.236,178.923,330.265,178.838,330.293z
		 M179.972,330.321c0.057,0,0.142,0,0.17-0.057c0.057-0.028,0.057-0.085,0.057-0.171c0-0.084,0-0.141-0.057-0.17
		c-0.028-0.057-0.113-0.084-0.17-0.084c-0.085,0-0.142,0.027-0.17,0.084c-0.057,0.029-0.085,0.086-0.085,0.17
		c0,0.086,0.029,0.143,0.085,0.171C179.83,330.321,179.887,330.321,179.972,330.321z M180,330.576
		c-0.028,0.028-0.057,0.028-0.085,0.028s-0.057,0-0.085,0c-0.142,0-0.255-0.028-0.34-0.142c-0.085-0.085-0.142-0.198-0.142-0.34
		c0-0.17,0.057-0.312,0.17-0.426s0.255-0.17,0.454-0.17c0.17,0,0.312,0.057,0.425,0.17c0.113,0.086,0.17,0.227,0.17,0.426
		c0,0.085-0.028,0.17-0.057,0.283c-0.057,0.113-0.113,0.227-0.227,0.396l-0.227,0.34h-0.425L180,330.576z M180.851,331.143
		l0.595-1.219h-0.652v-0.368h1.191v0.085l-0.681,1.502H180.851z M192.047,294.69l0.028-0.028l-0.737,0.255l0.737-0.255
		L192.047,294.69z M190.545,285.477L190.545,285.477L190.545,285.477z M187.2,290.041c0-0.057-0.028-0.085-0.057-0.142
		C187.172,289.956,187.2,289.984,187.2,290.041z M184.252,292.082c0,0.057,0,0.142,0,0.227
		C184.252,292.224,184.252,292.139,184.252,292.082z M213.42,272.409c-14.457,0.822-23.442-3.94-27.354-4.96h-0.028l0,0h0.028
		h-0.028c-12.019,3.855-21.798,5.103-32.797,4.592c0.085,0.057,0.142,0.17,0.199,0.312c0.595,2.466,0.878,3.742-0.199,6.18
		l1.077-0.624c0.199-1.219,0.425-2.41,0.681-3.657c0.595,0.028,1.19,0.057,1.757,0.057c0.737,1.077,1.417,2.296,2.098,3.515
		c1.134,2.012,2.296,4.025,3.713,5.726c0,0.028,0.028,0.028,0.028,0.057c1.701,2.012,3.543,3.742,5.329,5.414
		c3.118,2.948,6.066,5.698,7.568,9.326c1.843,4.422,2.155,7.398,2.523,10.941c0.255,2.296,0.51,4.847,1.219,8.164l-9.071-9.213
		c0.539-0.907,0.312-2.58-0.793-5.102l-2.154,2.097l-2.41-2.438c0.539-0.567,0.737-1.247,0.425-1.587
		c-0.34-0.34-1.105-0.142-1.701,0.425c-0.624,0.567-0.851,1.304-0.539,1.672c0.312,0.312,0.936,0.198,1.502-0.255l2.409,2.495
		l-2.551,2.495c2.75,1.077,4.649,1.332,5.528,0.539l9.581,9.836c0.454,1.955,1.049,4.195,1.871,6.803
		c0.596,0.028,1.163,0.085,1.729,0.199c-0.567-1.758-1.049-3.317-1.417-4.763l3.6,3.714l-1.219,1.246
		c0.227,0.057,0.425,0.113,0.652,0.199l0.992-1.021l1.134,1.163c0.227-0.057,0.454-0.085,0.708-0.114l-1.446-1.473l8.136-8.363
		c-0.142,1.135-0.369,2.495-0.964,4.195c-0.482,1.418-1.077,3.09-1.871,5.357c0.567,0,1.106,0,1.673,0.029
		c0.624-1.814,1.19-3.459,1.701-4.876c1.021-3.005,0.85-4.933,1.304-6.604l5.386-5.527c0.879,0.793,2.778,0.538,5.528-0.539
		l-2.551-2.495l2.41-2.495c0.567,0.454,1.219,0.567,1.502,0.255c0.34-0.369,0.085-1.105-0.51-1.672
		c-0.624-0.567-1.389-0.766-1.701-0.425c-0.312,0.34-0.142,1.021,0.397,1.587l-2.41,2.438l-2.126-2.097
		c-1.105,2.522-1.36,4.195-0.822,5.102l-4.734,4.79c0.765-2.098,1.304-4.053,2.948-8.05l0.113-0.255
		c0.907-2.154,3.146-5.84,4.224-10.205c1.927-7.738,4.224-16.979,7.03-20.409c0.028,0,0.028-0.028,0.057-0.028
		c0.142-0.199,0.312-0.34,0.454-0.51c1.956,0,3.912-0.142,5.924-0.454c0.199,1.644,0.397,3.26,0.567,4.847
		c0.397,0.227,0.766,0.454,1.077,0.68c-1.077-2.466-0.765-3.742-0.17-6.179c0.085-0.369,0.369-0.51,0.652-0.454l-0.028-0.227
		C217.275,272.098,215.348,272.296,213.42,272.409z M183.515,296.901h7.03v1.559h-7.03V296.901z M194.315,315.184l-8.646,8.788
		l-4.309-4.394c-1.134-4.508-1.474-7.654-1.758-10.432c-0.142-1.305-0.283-2.494-0.454-3.742c0.51-0.085,1.021-0.199,1.531-0.312
		c0.992-0.198,2.892-0.567,3.969-0.737l1.644,16.696l0.822-0.028l2.069-16.979c3.289,0.085,4.819,1.021,8.221,1.559
		c-1.474,3.543-1.899,5.385-2.693,7.512C194.513,313.71,194.4,314.391,194.315,315.184z M181.672,298.97l9.808-0.17v1.956
		l-9.808,0.17V298.97z M178.101,347.754h15.959l-0.907,0.851l-0.284,0.255h-13.578l-0.397-0.34L178.101,347.754z M174.076,336.02
		l0.312,0.113c3.657-1.56,7.541-1.475,11.622,0.368C182.296,334.176,177.477,334.262,174.076,336.02z M198,335.99l-0.284,0.113
		c-3.685-1.53-7.54-1.474-11.622,0.397C189.808,334.176,194.627,334.262,198,335.99z M172.743,334.914
		c0.964-2.184,2.438-5.868,2.438-5.868l0.482-2.409c3.543-1.248,6.775-1.135,9.723,0l0.312,4.422l0.425-4.395
		c2.75-0.68,6.236-0.623,9.978-0.34l0.539,3.373l2.495,5.584c-0.539,0.908-0.793,1.503-1.021,2.184l-24.179-0.113
		c-0.227-0.709-0.539-1.361-1.134-2.381l0,0C172.771,334.941,172.771,334.941,172.743,334.914z M197.518,340.328h-0.312
		l-0.481-1.078v-0.027l-0.028-0.057c-0.085-0.199-0.199-0.312-0.34-0.369h1.389l-0.085,0.312l-0.028,0.142l0,0
		C197.546,339.619,197.518,339.959,197.518,340.328z M195.137,340.328h-18.199c-0.113-0.312-0.255-0.681-0.454-1.078l-0.057-0.113
		l-0.057-0.142l0,0c-0.028-0.085-0.085-0.142-0.142-0.198h19.757c-0.113,0.057-0.227,0.142-0.312,0.312l-0.057,0.114v0.027
		C195.42,339.647,195.25,340.016,195.137,340.328z M174.812,340.328h-0.283c0.028-0.397,0-0.766-0.085-1.078l0,0l0,0l-0.028-0.113
		l-0.085-0.34h1.219c-0.085,0.057-0.142,0.142-0.17,0.227l-0.057,0.113l-0.028,0.113L174.812,340.328z M168.491,330.321h5.584
		c-0.199,0.425-0.397,0.907-0.595,1.417h-3.118c-0.199-0.17-0.51-0.17-0.709,0h-1.134C168.52,331.2,168.52,330.775,168.491,330.321z
		 M172.771,333.411c-0.142,0.396-0.312,0.765-0.454,1.105h-1.162c-0.028-0.368-0.085-0.681-0.198-1.105H172.771z M197.546,330.321
		h6.038c-0.057,0.454-0.057,0.907-0.057,1.417h-1.275c-0.142-0.057-0.284-0.057-0.425,0h-3.657L197.546,330.321z M200.92,334.517
		h-1.502l-0.482-1.105h2.183C201.033,333.808,200.977,334.148,200.92,334.517z M165.94,325.19c3.685-0.113,6.888,0.284,10.12,0.737
		c-0.199,0.057-0.369,0.113-0.567,0.17l0,0c-0.17,0.085-0.312,0.227-0.368,0.426l-0.227,1.133c-2.863-0.396-5.754-0.708-9.014-0.595
		C165.968,326.438,165.997,325.899,165.94,325.19z M196.725,326.721c1.786-0.141,3.515-0.34,5.301-0.51
		c1.332-0.142,2.665-0.255,4.053-0.396c0,0.652,0.057,1.162,0.17,1.871c-0.539,0.057-1.077,0.084-1.616,0.141
		c-0.085-0.027-0.198,0-0.312,0.029c-0.708,0.084-1.417,0.142-2.098,0.227c-1.757,0.17-3.458,0.34-5.188,0.482L196.725,326.721z
		 M177.364,341.972h17.348c-0.057,0.283-0.085,0.624-0.142,0.992l-0.029,0.085h-17.008
		C177.449,342.652,177.42,342.283,177.364,341.972z M177.335,345.062h17.348c0.113,0.368,0.255,0.737,0.425,1.105H176.91
		C177.08,345.826,177.222,345.458,177.335,345.062z M189.127,351.949l-6.066,0.057l-1.333-1.105l8.958-0.255L189.127,351.949z"/>
</g>
<path fill="#EE8919" d="M181.275,289.672c1.333,2.863,0.085,6.265,2.296,6.775h7.001c1.36,0.057,0.992-1.19,1.502-1.786
	l-0.737,0.255c-0.028-0.851,1.021-1.587,0.737-2.466c-0.028,0.482-0.397,1.134-1.134,1.361c2.636-4.621-0.624-4.762-0.397-8.334
	c-0.822,0.992,0.397,3.742-0.312,5.046c-0.255-3.374-0.907-5.556-2.126-6.038c0.567,2.438,0.737,4.649-0.396,6.435
	c-0.851-1.276-1.276-2.92-1.219-4.904c-1.219,1.899-1.077,4.167-0.539,6.491c-0.68,0-0.624-4.819-0.992-3.968
	c-0.652,1.616-0.765,2.806-0.68,5.017C183.968,290.665,182.353,289.19,181.275,289.672z"/>
<path fill="#D9DADA" d="M149.783,269.688c0.765,1.078,1.19,2.183,1.105,3.402l-6.435,1.19l-0.822-2.098L149.783,269.688z
	 M172.318,260.476c0.851,1.644,1.219,3.26,0.879,4.904l-6.463-0.085l-0.539-3.033L172.318,260.476z M200.863,265.464
	c-0.737-0.028-0.198-4.082,0.425-4.422l5.528,1.871l0.963,2.24l-3.146,0.567L200.863,265.464z M224.589,269.093
	c-1.275,2.126-1.757,3.515-1.219,4.11l2.919,0.652h3.033l1.276-1.417L224.589,269.093z"/>
<path fill="#FEFEFE" d="M139.975,277.852c2.722-1.871,6.974-3.231,10.914-4.904c-1.616-0.028-3.487-0.142-5.698,0.567
	c-0.822,0-1.36-0.851-0.028-1.559c6.463-3.884,16.044-5.074,26.05-5.896c1.531-0.113,2.381-0.481,1.786-0.907
	c-18.595,1.021,10.403-11.168,33.193-1.956c3.289,2.778-3.912,2.126-5.556,2.239c10.148,1.333,21.005,2.636,28.12,6.151
	c0.595,0.397,1.361,1.19,0.624,1.531c-1.757,0.34-3.912,0.085-6.009-0.085c4.28,1.275,7.994,2.834,10.743,4.932l-0.964-3.798
	l2.693-1.361c-1.304-0.992-2.579-1.984-4.875-2.551c0.142-1.247,1.814-3.175,1.134-3.742c-2.948-3.713-16.242-6.378-24.038-6.604
	c0.624-1.389,0.822-2.41,0.708-3.6c-8.079-7.512-38.948-6.236-43.653,0.028c-0.454,1.134-0.113,2.324,0.482,3.345
	c-8.759,0.17-22.734,3.771-23.839,7.172c0,0.964,0.567,2.154,1.389,3.43l-5.329,2.296l2.863,1.446L139.975,277.852z
	 M176.117,256.535l-0.879,0.142l-0.085-0.567c-0.028-0.17-0.057-0.284-0.085-0.312c-0.028-0.057-0.057-0.057-0.142-0.057
	c-0.057,0-0.113,0.057-0.113,0.085c0,0.057,0,0.17,0.028,0.34l0.227,1.559c0.028,0.17,0.057,0.255,0.085,0.312
	c0.028,0.057,0.085,0.057,0.142,0.057s0.113-0.028,0.113-0.085c0.028-0.057,0-0.17-0.028-0.368l-0.057-0.425l0.879-0.113v0.113
	c0.057,0.34,0.085,0.595,0.057,0.765c-0.028,0.142-0.113,0.284-0.284,0.425c-0.142,0.142-0.34,0.227-0.567,0.255
	c-0.255,0.029-0.482,0.029-0.652-0.028c-0.198-0.085-0.312-0.198-0.397-0.34c-0.085-0.17-0.142-0.397-0.198-0.737l-0.142-0.963
	c-0.057-0.255-0.057-0.425-0.085-0.539c0-0.142,0.057-0.255,0.113-0.397c0.057-0.113,0.17-0.227,0.283-0.312
	c0.142-0.085,0.312-0.142,0.51-0.17c0.255-0.028,0.454-0.028,0.652,0.057c0.17,0.057,0.312,0.17,0.369,0.312
	c0.085,0.142,0.142,0.368,0.199,0.68L176.117,256.535z M178.526,256.734c0.057,0.34,0.085,0.595,0.085,0.737
	s-0.057,0.255-0.113,0.397c-0.057,0.113-0.17,0.227-0.312,0.312c-0.142,0.057-0.284,0.113-0.482,0.142
	c-0.17,0.028-0.34,0-0.482-0.028c-0.17-0.057-0.284-0.113-0.397-0.227c-0.085-0.114-0.17-0.227-0.198-0.369
	c-0.028-0.142-0.057-0.369-0.114-0.709l-0.057-0.595c-0.057-0.312-0.057-0.567-0.057-0.708s0.028-0.284,0.085-0.397
	c0.085-0.142,0.17-0.227,0.312-0.312s0.312-0.142,0.482-0.142c0.198-0.028,0.34-0.028,0.51,0.028
	c0.142,0.029,0.255,0.114,0.368,0.199c0.085,0.113,0.17,0.255,0.199,0.368c0.028,0.142,0.085,0.397,0.113,0.737L178.526,256.734z
	 M177.534,255.742c-0.028-0.17-0.028-0.255-0.057-0.312c-0.028-0.028-0.057-0.057-0.113-0.028c-0.057,0-0.085,0.028-0.113,0.057
	c0,0.028,0,0.142,0,0.312l0.198,1.559c0.028,0.198,0.057,0.312,0.057,0.369c0.028,0.057,0.085,0.057,0.142,0.057
	c0.057,0,0.085-0.028,0.085-0.085c0.028-0.057,0-0.199-0.028-0.397L177.534,255.742z M180.68,254.495l0.34,3.373l-0.766,0.085
	l-0.624-1.474l0.17,1.531l-0.737,0.057l-0.34-3.374l0.737-0.057l0.624,1.474l-0.142-1.531L180.68,254.495z M183.26,256.337
	c0.028,0.34,0.028,0.567,0.028,0.709c0,0.142-0.057,0.283-0.142,0.396c-0.057,0.142-0.17,0.227-0.312,0.312
	c-0.142,0.057-0.312,0.113-0.482,0.113c-0.198,0.028-0.368,0-0.51-0.057c-0.142-0.057-0.255-0.113-0.368-0.227
	c-0.085-0.113-0.142-0.255-0.17-0.396c-0.028-0.113-0.057-0.369-0.085-0.709l-0.028-0.595c-0.028-0.34-0.028-0.567-0.028-0.708
	s0.057-0.283,0.113-0.397c0.085-0.113,0.199-0.227,0.34-0.283c0.142-0.085,0.312-0.142,0.482-0.142c0.198,0,0.34,0,0.51,0.057
	c0.142,0.057,0.255,0.142,0.34,0.255c0.113,0.113,0.17,0.227,0.198,0.369s0.057,0.368,0.085,0.708L183.26,256.337z M182.296,255.288
	c0-0.17-0.028-0.255-0.028-0.312c-0.028-0.028-0.057-0.057-0.113-0.057s-0.085,0.028-0.113,0.057c-0.028,0.057-0.028,0.142,0,0.312
	l0.085,1.587c0.028,0.199,0.057,0.312,0.057,0.369c0.028,0.028,0.057,0.057,0.113,0.057s0.114-0.028,0.114-0.085s0-0.17,0-0.369
	L182.296,255.288z M185.698,255.685l-0.879,0.028l-0.028-0.595c0-0.17-0.028-0.255-0.028-0.312
	c-0.028-0.028-0.085-0.057-0.142-0.057s-0.114,0.028-0.142,0.085c0,0.057,0,0.17,0,0.34l0.057,1.559c0,0.17,0,0.284,0.028,0.312
	c0.028,0.057,0.057,0.085,0.142,0.085c0.057,0,0.085-0.028,0.113-0.085c0.028-0.057,0.028-0.17,0.028-0.34l-0.028-0.425l0.879-0.057
	v0.142c0.028,0.369,0,0.595-0.028,0.766c-0.057,0.142-0.17,0.255-0.312,0.396c-0.17,0.114-0.397,0.17-0.624,0.17
	c-0.255,0-0.482-0.028-0.652-0.114c-0.17-0.085-0.284-0.227-0.34-0.368c-0.057-0.17-0.113-0.425-0.113-0.766l-0.028-0.964
	c0-0.255,0-0.453,0-0.566c0.028-0.114,0.057-0.227,0.142-0.34s0.198-0.227,0.34-0.284c0.142-0.085,0.312-0.113,0.51-0.113
	c0.255-0.028,0.454,0.028,0.652,0.113c0.17,0.113,0.283,0.227,0.34,0.369c0.057,0.142,0.085,0.397,0.085,0.708L185.698,255.685z
	 M186.888,254.183l0.057,3.373l-0.879,0.028l-0.057-3.401H186.888z M190.148,254.268l-0.142,3.374l-0.766-0.029l0.085-2.268
	l-0.397,2.268l-0.539-0.028l-0.227-2.239l-0.085,2.239l-0.765-0.028l0.113-3.401l1.134,0.057c0.028,0.198,0.057,0.454,0.085,0.737
	l0.085,0.85l0.255-1.559L190.148,254.268z M191.424,254.324l-0.17,3.402l-0.878-0.057l0.17-3.374L191.424,254.324z M191.905,254.381
	l1.474,0.142l-0.085,0.68l-0.567-0.057l-0.057,0.652l0.539,0.028l-0.057,0.652l-0.539-0.057l-0.085,0.737l0.652,0.057l-0.057,0.68
	l-1.531-0.142L191.905,254.381z M195.732,254.806l-0.397,3.345l-0.765-0.085l-0.284-1.588l-0.17,1.531l-0.737-0.085l0.425-3.373
	l0.708,0.113l0.312,1.559l0.198-1.502L195.732,254.806z M197.972,255.203l-0.113,0.68l-0.51-0.113l-0.482,2.693l-0.851-0.17
	l0.454-2.665l-0.51-0.085l0.113-0.681L197.972,255.203z M199.871,257.698c-0.085,0.34-0.142,0.567-0.199,0.708
	c-0.028,0.142-0.113,0.255-0.227,0.34c-0.114,0.085-0.227,0.142-0.397,0.17c-0.142,0.028-0.312,0.028-0.51,0
	c-0.17-0.057-0.312-0.113-0.454-0.198c-0.113-0.085-0.227-0.199-0.283-0.34s-0.057-0.283-0.057-0.425
	c0.028-0.142,0.057-0.369,0.142-0.708l0.142-0.567c0.057-0.34,0.142-0.567,0.17-0.708c0.057-0.114,0.142-0.227,0.255-0.34
	c0.085-0.085,0.227-0.142,0.369-0.17c0.17-0.028,0.34-0.028,0.51,0.028c0.199,0.029,0.34,0.085,0.454,0.199
	c0.142,0.085,0.227,0.198,0.284,0.312c0.057,0.142,0.085,0.283,0.085,0.425c-0.028,0.142-0.085,0.369-0.142,0.709L199.871,257.698z
	 M199.275,256.422c0.028-0.142,0.028-0.255,0.028-0.312c0-0.028-0.028-0.057-0.085-0.085c-0.057,0-0.085,0-0.113,0.028
	s-0.057,0.142-0.113,0.312l-0.34,1.531c-0.057,0.199-0.085,0.312-0.085,0.369c0.028,0.028,0.057,0.057,0.113,0.085
	c0.057,0,0.085,0,0.113-0.057c0.029-0.057,0.057-0.17,0.114-0.369L199.275,256.422z M211.776,262.063l0.652,0.085
	c0.425,0.028,0.709,0.085,0.851,0.142c0.142,0.057,0.255,0.142,0.312,0.227c0.085,0.113,0.114,0.198,0.114,0.312
	c0.028,0.114,0,0.34-0.028,0.652l-0.114,1.162c-0.057,0.312-0.085,0.51-0.113,0.624c-0.057,0.085-0.113,0.17-0.17,0.227
	c-0.085,0.028-0.17,0.057-0.284,0.085c-0.113,0-0.255,0-0.482-0.028l-1.105-0.114L211.776,262.063z M212.599,262.743l-0.227,2.211
	c0.113,0.028,0.199,0,0.227-0.057c0.028-0.028,0.057-0.17,0.085-0.396l0.142-1.304c0-0.17,0.028-0.255,0-0.312
	c0-0.028,0-0.057-0.057-0.085C212.74,262.771,212.684,262.743,212.599,262.743z M214.243,262.347l1.474,0.198l-0.113,0.68
	l-0.567-0.085l-0.085,0.652l0.539,0.057l-0.085,0.652l-0.539-0.085l-0.113,0.737l0.652,0.085l-0.113,0.68l-1.502-0.227
	L214.243,262.347z M216.113,262.63l0.879,0.17c0.227,0.028,0.397,0.085,0.51,0.142c0.142,0.057,0.227,0.113,0.255,0.198
	c0.057,0.085,0.085,0.17,0.085,0.284c0.029,0.113,0,0.255-0.028,0.481l-0.057,0.284c-0.028,0.198-0.085,0.369-0.142,0.454
	s-0.17,0.142-0.284,0.17c-0.142,0.028-0.283,0.028-0.481,0l-0.227-0.028l-0.227,1.333l-0.879-0.142L216.113,262.63z
	 M216.879,263.367l-0.142,0.85c0,0,0.028,0,0.057,0c0.085,0.028,0.142,0,0.17-0.028s0.057-0.113,0.085-0.227l0.057-0.283
	c0.028-0.113,0-0.198-0.028-0.227C217.049,263.396,216.992,263.367,216.879,263.367z M219.883,265.436
	c-0.057,0.34-0.142,0.567-0.17,0.709c-0.057,0.142-0.142,0.255-0.227,0.34c-0.114,0.114-0.255,0.17-0.397,0.199
	c-0.17,0.028-0.34,0-0.51-0.028c-0.199-0.028-0.34-0.113-0.454-0.199c-0.142-0.085-0.227-0.198-0.284-0.34
	c-0.057-0.142-0.085-0.255-0.057-0.397c0-0.142,0.057-0.397,0.114-0.737l0.142-0.566c0.085-0.312,0.142-0.567,0.198-0.681
	c0.028-0.142,0.113-0.255,0.227-0.34c0.113-0.114,0.227-0.17,0.396-0.199c0.142-0.028,0.312-0.028,0.51,0.028
	c0.17,0.028,0.312,0.113,0.454,0.199c0.113,0.085,0.199,0.198,0.284,0.34c0.057,0.113,0.057,0.255,0.057,0.397
	c-0.028,0.142-0.057,0.397-0.142,0.708L219.883,265.436z M219.288,264.161c0.028-0.142,0.057-0.255,0.028-0.284
	c0-0.057-0.028-0.085-0.085-0.085c-0.028-0.028-0.085,0-0.113,0.028s-0.057,0.113-0.085,0.284l-0.369,1.531
	c-0.057,0.198-0.057,0.312-0.057,0.368s0.028,0.085,0.085,0.085c0.057,0.029,0.113,0,0.142-0.057c0.028-0.028,0.057-0.17,0.114-0.34
	L219.288,264.161z M220.847,263.679l0.595,0.17c0.397,0.113,0.681,0.199,0.794,0.284c0.142,0.057,0.227,0.17,0.283,0.312
	c0.057,0.17,0.028,0.368-0.028,0.652c-0.085,0.255-0.17,0.425-0.255,0.482c-0.085,0.085-0.227,0.085-0.425,0.057
	c0.17,0.085,0.255,0.17,0.312,0.255c0.028,0.085,0.057,0.17,0.057,0.227c-0.028,0.057-0.057,0.227-0.142,0.482l-0.227,0.878
	l-0.794-0.227l0.312-1.077c0.057-0.199,0.057-0.312,0.057-0.34c-0.028-0.057-0.085-0.113-0.198-0.142l-0.425,1.474l-0.851-0.227
	L220.847,263.679z M221.527,264.473l-0.198,0.708c0.085,0.028,0.17,0.057,0.198,0.028c0.057,0,0.085-0.085,0.142-0.227l0.057-0.198
	c0.028-0.085,0.028-0.17,0-0.198C221.698,264.529,221.641,264.501,221.527,264.473z M224.901,264.954l-0.227,0.652l-0.482-0.17
	l-0.878,2.551l-0.822-0.283l0.879-2.58l-0.51-0.17l0.227-0.624L224.901,264.954z M225.127,265.096l1.389,0.482l-0.227,0.652
	l-0.567-0.199l-0.227,0.596l0.539,0.198l-0.227,0.595l-0.51-0.198l-0.255,0.708l0.595,0.227l-0.227,0.624l-1.446-0.51
	L225.127,265.096z M144.482,266.712l0.595-0.255c0.397-0.17,0.68-0.255,0.822-0.283c0.142-0.028,0.283,0,0.396,0.057
	c0.085,0.028,0.17,0.113,0.255,0.198c0.057,0.085,0.142,0.284,0.255,0.595l0.482,1.077c0.113,0.284,0.17,0.482,0.199,0.596
	c0,0.085,0,0.198-0.057,0.255c-0.028,0.085-0.113,0.17-0.198,0.227s-0.227,0.142-0.397,0.227l-1.049,0.425L144.482,266.712z
	 M145.502,266.91l0.878,2.041c0.114-0.057,0.17-0.113,0.199-0.17c0-0.057-0.057-0.17-0.142-0.397l-0.51-1.19
	c-0.057-0.142-0.114-0.255-0.114-0.284c-0.028-0.028-0.057-0.057-0.113-0.057C145.672,266.854,145.616,266.854,145.502,266.91z
	 M147.6,265.408l1.219,3.146l-0.822,0.312l-1.219-3.146L147.6,265.408z M150.123,265.578l-0.766,0.255l-0.085-0.227
	c-0.028-0.113-0.085-0.199-0.113-0.227c-0.028,0-0.057,0-0.113,0c-0.029,0.028-0.057,0.057-0.085,0.114c0,0.028,0,0.113,0.028,0.198
	s0.085,0.17,0.114,0.227c0.057,0.028,0.17,0.057,0.312,0.113c0.454,0.085,0.737,0.17,0.879,0.284s0.283,0.34,0.397,0.652
	c0.057,0.227,0.113,0.397,0.085,0.51c-0.028,0.142-0.085,0.255-0.227,0.397c-0.113,0.113-0.283,0.227-0.482,0.283
	c-0.227,0.085-0.425,0.114-0.624,0.057c-0.17-0.028-0.312-0.085-0.425-0.198c-0.085-0.113-0.17-0.283-0.255-0.539l-0.057-0.198
	l0.765-0.284l0.142,0.397c0.028,0.113,0.057,0.199,0.113,0.227c0.028,0.028,0.057,0.028,0.113,0c0.057,0,0.085-0.057,0.113-0.114
	c0-0.028,0-0.113-0.028-0.198c-0.057-0.17-0.142-0.312-0.198-0.34c-0.085-0.028-0.255-0.085-0.51-0.142
	c-0.255-0.085-0.425-0.142-0.51-0.17s-0.17-0.113-0.255-0.199c-0.085-0.085-0.142-0.227-0.198-0.397
	c-0.085-0.255-0.113-0.425-0.085-0.566c0.028-0.142,0.085-0.255,0.198-0.369c0.113-0.114,0.284-0.199,0.482-0.284
	c0.199-0.057,0.397-0.085,0.595-0.085c0.17,0.028,0.284,0.085,0.369,0.17s0.17,0.255,0.284,0.51L150.123,265.578z M152.617,265.266
	l-0.85,0.284l-0.17-0.567c-0.028-0.17-0.085-0.283-0.113-0.312s-0.085-0.028-0.142-0.028c-0.057,0.028-0.085,0.057-0.113,0.113
	c0,0.057,0.028,0.17,0.085,0.34l0.454,1.502c0.057,0.142,0.085,0.255,0.113,0.283c0.057,0.057,0.085,0.057,0.17,0.057
	c0.057-0.028,0.085-0.057,0.085-0.113s-0.028-0.17-0.085-0.34l-0.113-0.425l0.851-0.255l0.028,0.142
	c0.113,0.312,0.17,0.567,0.142,0.709c0,0.17-0.057,0.312-0.198,0.481c-0.114,0.142-0.312,0.255-0.539,0.34
	c-0.255,0.085-0.454,0.085-0.652,0.057c-0.198-0.057-0.34-0.142-0.425-0.283c-0.113-0.142-0.198-0.369-0.312-0.68l-0.284-0.964
	c-0.057-0.227-0.113-0.397-0.142-0.51c0-0.142,0-0.255,0.057-0.397c0.028-0.113,0.113-0.255,0.255-0.34
	c0.113-0.113,0.255-0.198,0.454-0.255c0.227-0.057,0.453-0.085,0.652-0.028c0.198,0.028,0.34,0.113,0.425,0.255
	c0.085,0.114,0.198,0.34,0.283,0.652L152.617,265.266z M153.468,263.509l0.879,3.26l-0.851,0.227l-0.879-3.26L153.468,263.509z
	 M153.865,263.367l0.878-0.199c0.227-0.057,0.425-0.085,0.539-0.085c0.142,0.028,0.255,0.057,0.34,0.113
	c0.057,0.057,0.142,0.113,0.17,0.227c0.057,0.085,0.085,0.227,0.142,0.425l0.085,0.284c0.028,0.227,0.057,0.369,0.028,0.482
	s-0.085,0.198-0.199,0.283c-0.085,0.085-0.227,0.142-0.425,0.17l-0.227,0.057l0.312,1.332l-0.879,0.199L153.865,263.367z
	 M154.856,263.735l0.199,0.822c0.028,0,0.057,0,0.057,0c0.085-0.028,0.142-0.057,0.17-0.085c0-0.057,0-0.142-0.028-0.255
	l-0.057-0.284c-0.028-0.113-0.057-0.17-0.113-0.198C155.055,263.707,154.97,263.707,154.856,263.735z M156.954,262.687l0.539,2.665
	l0.51-0.113l0.114,0.68l-1.361,0.255l-0.652-3.317L156.954,262.687z M158.655,262.375l0.567,3.345l-0.851,0.142l-0.595-3.316
	L158.655,262.375z M161.036,261.978l0.454,3.345l-0.737,0.113l-0.681-1.445l0.227,1.502l-0.737,0.113l-0.482-3.345l0.737-0.113
	l0.708,1.446l-0.227-1.502L161.036,261.978z M162.936,261.751l0.907,3.288l-0.907,0.114l-0.113-0.595l-0.312,0.028l0.028,0.624
	l-0.907,0.113l0.028-3.43L162.936,261.751z M162.737,263.962c-0.113-0.368-0.198-0.822-0.312-1.389c0,0.652,0,1.134,0,1.417
	L162.737,263.962z"/>
</svg>
