<?xml version="1.0" encoding="utf-8"?>
<!-- Generator: Adobe Illustrator 16.0.0, SVG Export Plug-In . SVG Version: 6.00 Build 0)  -->
<!DOCTYPE svg PUBLIC "-//W3C//DTD SVG 1.1//EN" "http://www.w3.org/Graphics/SVG/1.1/DTD/svg11.dtd">
<svg version="1.1" id="Layer_1" xmlns="http://www.w3.org/2000/svg" xmlns:xlink="http://www.w3.org/1999/xlink" x="0px" y="0px"
	 width="1200px" height="739.744px" viewBox="0 0 1200 739.744" enable-background="new 0 0 1200 739.744" xml:space="preserve">
<path opacity="0.78" fill="#FFFFFF" d="M1133.135,636.84c0-79.716-64.624-144.342-144.342-144.342
	c-44.248,0-83.838,19.917-110.315,51.267c-20.9,5.465-39.768,15.95-55.236,30.093c-11.64-6.337-24.98-9.939-39.166-9.939
	c-21.955,0-41.879,8.644-56.601,22.69c-2.229-1.15-4.569-2.115-6.992-2.891c12.496-37.501,58.716-167.912,55.978-217.083
	c-15.156-30.897-34.164-15.029-34.164-15.029s-15.889,77-41.999,70.547c-26.147-6.463,0.827-86.297,0.827-86.297l-26.36-8.747
	c-33.421,87.585-104.014,215.681-235.88,283.003c-6.211-3.557-13.397-5.599-21.066-5.599c-12.064,0-22.945,5.04-30.678,13.116
	c-7.742-10.379-20.117-17.102-34.062-17.102c-1.762,0-3.493,0.12-5.198,0.328c-11.61-30.905-41.424-52.905-76.387-52.905
	c-4.167,0-8.261,0.316-12.26,0.919c-20.216-31.178-55.319-51.806-95.244-51.806c-62.65,0-113.438,50.788-113.438,113.438
	c0,18.126,4.259,35.255,11.817,50.45h192.328c-0.393,0.035-0.779,0.072-1.174,0.106c309.573,0,433.136,0,433.136,0
	s0.024-0.041,0.062-0.106h444.399C1132.438,653.111,1133.135,645.058,1133.135,636.84z"/>
<g>
	<path fill="#D97651" d="M690.651,241.727l-38.181,44.692c-1.695,1.983-1.383,4.982,0.685,6.575l22.827,17.58l9.545-19.485
		L690.651,241.727z"/>
	<path fill="#E7E7E7" d="M749.085,155.965c0,0,0.013,0.012,0.026,0.025C749.095,155.975,749.085,155.965,749.085,155.965z"/>
	<path fill="#E7E7E7" d="M749.049,155.97c0.019-0.002,0.036-0.004,0.036-0.004S749.07,155.967,749.049,155.97z"/>
	<path fill="#E7E7E7" d="M749.128,156.007c0.017,0.017,0.041,0.041,0.068,0.069C749.167,156.047,749.145,156.025,749.128,156.007z"
		/>
	<path fill="#E7E7E7" d="M749.868,156.79c0.29,0.319,0.652,0.729,1.072,1.229C750.521,157.519,750.158,157.109,749.868,156.79z"/>
	<path fill="#E7E7E7" d="M746.37,156.501c0.635-0.148,1.17-0.261,1.594-0.343C747.541,156.24,747.005,156.353,746.37,156.501z"/>
	<path fill="#E7E7E7" d="M748.929,155.988c0.038-0.006,0.073-0.011,0.097-0.014C749.001,155.977,748.969,155.981,748.929,155.988z"
		/>
	<path fill="#E7E7E7" d="M748.013,156.149c0.123-0.024,0.235-0.045,0.337-0.063C748.248,156.104,748.136,156.125,748.013,156.149z"
		/>
	<path fill="#E7E7E7" d="M748.384,156.079c0.219-0.039,0.388-0.067,0.506-0.085C748.772,156.012,748.604,156.04,748.384,156.079z"/>
	<path fill="#E7E7E7" d="M749.6,156.499c0.07,0.076,0.149,0.162,0.234,0.254C749.749,156.66,749.671,156.575,749.6,156.499z"/>
	<path fill="#E7E7E7" d="M749.58,156.478c-0.015-0.016-0.032-0.035-0.046-0.049c0,0,0,0.001,0.001,0.002
		C749.552,156.448,749.563,156.46,749.58,156.478z"/>
	<path fill="#959696" d="M764.483,186.61c-1.887,0.259-3.798,0.417-5.725,0.475c0.491,8.495-0.479,18.216-4.054,28.992
		c-13.026,39.255-34.357,81.236-47.837,104.745l8.388,2.784c13.48-23.509,33.579-61.725,46.604-100.979
		c11.35-34.202-5.154-57.755-10.914-64.602C754.366,162.091,761.566,172.043,764.483,186.61z"/>
	<path fill="#E7E7E7" d="M749.534,156.428c-0.133-0.141-0.234-0.247-0.311-0.323c0.075,0.076,0.182,0.188,0.312,0.325
		C749.534,156.43,749.534,156.429,749.534,156.428z"/>
	<path fill="#C2C1C1" d="M754.705,216.078c3.575-10.776,4.545-20.498,4.054-28.992c-6.275,0.193-12.721-0.689-19.072-2.797
		c-8.302-2.755-15.488-7.279-21.266-12.963c11.047-9.933,22.769-13.606,27.941-14.823c-8.711,2.045-36.021,11.06-47.37,45.262
		c-13.026,39.255-19.761,81.905-23.01,108.809l30.886,10.249C720.348,297.313,741.679,255.333,754.705,216.078z"/>
	<path fill="#D97651" d="M748.89,155.994c0.015-0.002,0.027-0.004,0.039-0.006C748.915,155.99,748.905,155.991,748.89,155.994z"/>
	<path fill="#D97651" d="M749.025,155.974c0.007-0.001,0.018-0.003,0.023-0.004C749.041,155.971,749.036,155.972,749.025,155.974z"
		/>
	<path fill="#D97651" d="M748.35,156.085c0.011-0.002,0.024-0.004,0.034-0.006C748.373,156.082,748.36,156.083,748.35,156.085z"/>
	<path fill="#D97651" d="M750.94,158.019c0.002,0.001,0.004,0.004,0.006,0.006C750.944,158.022,750.942,158.02,750.94,158.019z"/>
	<path fill="#D97651" d="M747.964,156.158c0.017-0.003,0.032-0.006,0.049-0.009C747.996,156.152,747.981,156.155,747.964,156.158z"
		/>
	<path fill="#D97651" d="M746.362,156.503c0,0,0.005-0.001,0.008-0.002C746.367,156.501,746.364,156.502,746.362,156.503z"/>
	<path fill="#D97651" d="M749.58,156.478c0.006,0.007,0.014,0.014,0.02,0.021C749.593,156.492,749.586,156.485,749.58,156.478z"/>
	<path fill="#D97651" d="M749.196,156.076c0.009,0.009,0.018,0.019,0.027,0.029C749.213,156.094,749.206,156.086,749.196,156.076z"
		/>
	<path fill="#D97651" d="M749.834,156.753c0.011,0.012,0.022,0.024,0.034,0.037C749.856,156.777,749.845,156.766,749.834,156.753z"
		/>
	<path fill="#D97651" d="M749.111,155.991c0.004,0.004,0.011,0.012,0.017,0.017C749.12,156,749.116,155.996,749.111,155.991z"/>
	<path fill="#D97651" d="M718.421,171.326c5.777,5.684,12.964,10.208,21.266,12.963c6.352,2.108,12.797,2.99,19.072,2.797
		c-0.795-13.733-5.432-24.236-9.224-30.655c-0.13-0.138-0.236-0.25-0.312-0.325c-0.01-0.01-0.019-0.02-0.027-0.029
		c-0.027-0.028-0.052-0.052-0.068-0.069c-0.006-0.005-0.013-0.013-0.017-0.017c-0.014-0.014-0.026-0.025-0.026-0.025
		s-0.018,0.002-0.036,0.004c-0.006,0.001-0.017,0.002-0.023,0.004c-0.023,0.003-0.059,0.008-0.097,0.014
		c-0.012,0.002-0.024,0.004-0.039,0.006c-0.118,0.018-0.287,0.046-0.506,0.085c-0.01,0.002-0.023,0.004-0.034,0.006
		c-0.102,0.019-0.214,0.04-0.337,0.063c-0.017,0.003-0.032,0.006-0.049,0.009c-0.424,0.082-0.959,0.194-1.594,0.343
		c-0.003,0-0.006,0.001-0.006,0.001C741.189,157.719,729.468,161.393,718.421,171.326z"/>
	<path fill="#C15946" d="M758.759,187.085c1.927-0.058,3.838-0.216,5.725-0.475c-2.917-14.567-10.117-24.519-13.537-28.585
		c-0.002-0.002-0.004-0.005-0.006-0.006c-0.42-0.5-0.782-0.91-1.072-1.229c-0.012-0.012-0.023-0.024-0.034-0.037
		c-0.085-0.093-0.164-0.178-0.234-0.254c-0.006-0.007-0.014-0.014-0.02-0.021c-0.017-0.018-0.028-0.03-0.045-0.047
		C753.327,162.849,757.964,173.353,758.759,187.085z"/>
	<path fill="#818180" d="M706.868,320.823l-7.328,22.36c-0.621,1.873-2.645,2.888-4.519,2.267l-27.672-9.183l-0.122,0.368
		c-0.622,1.874,0.393,3.897,2.267,4.518l32.683,10.846c1.874,0.622,3.896-0.394,4.519-2.268l8.658-26.093l-0.098-0.032
		L706.868,320.823z"/>
	<path fill="#A8A7A7" d="M699.54,343.183l7.328-22.36l-30.886-10.249l-0.097-0.031l-8.536,25.724l27.672,9.183
		C696.896,346.071,698.919,345.056,699.54,343.183z"/>
	<path fill="#E7E7E7" d="M711.806,332.472l-38.357-12.728c-1.324-0.439-2.041-1.869-1.602-3.193l0,0
		c0.439-1.324,1.869-2.041,3.192-1.602l38.357,12.728c1.324,0.44,2.04,1.869,1.602,3.193l0,0
		C714.559,332.194,713.129,332.912,711.806,332.472z M712.304,338.992L712.304,338.992c0.439-1.324-0.278-2.753-1.603-3.193
		l-38.357-12.728c-1.323-0.439-2.753,0.277-3.192,1.602l0,0c-0.439,1.324,0.277,2.754,1.603,3.193l38.356,12.728
		C710.435,341.034,711.864,340.316,712.304,338.992z M709.608,347.114L709.608,347.114c0.439-1.324-0.278-2.753-1.603-3.193
		l-38.356-12.728c-1.324-0.439-2.754,0.278-3.193,1.602l0,0c-0.438,1.324,0.278,2.753,1.603,3.193l38.356,12.728
		C707.739,349.155,709.169,348.438,709.608,347.114z"/>
	<path fill="#C2C1C1" d="M707.012,326.133c-0.439,1.324-1.869,2.041-3.192,1.602l-32.085-10.646
		c-0.12,1.153,0.567,2.275,1.714,2.656l38.357,12.728c1.323,0.44,2.753-0.278,3.192-1.602c0.438-1.324-0.277-2.754-1.602-3.193
		l-6.272-2.082C707.104,325.775,707.07,325.955,707.012,326.133z"/>
	<path fill="#C2C1C1" d="M708.007,343.921l-6.273-2.082c-0.019,0.179-0.053,0.359-0.112,0.537c-0.439,1.324-1.869,2.041-3.192,1.602
		l-32.084-10.646c-0.12,1.153,0.568,2.275,1.714,2.656l38.356,12.728c1.325,0.439,2.754-0.278,3.193-1.602
		C710.048,345.79,709.33,344.36,708.007,343.921z"/>
	<path fill="#C2C1C1" d="M710.701,335.799l-6.272-2.082c-0.019,0.179-0.053,0.359-0.112,0.537c-0.439,1.324-1.869,2.041-3.192,1.602
		l-32.085-10.646c-0.119,1.153,0.568,2.275,1.715,2.656l38.356,12.728c1.324,0.44,2.754-0.278,3.193-1.602
		C712.743,337.669,712.025,336.239,710.701,335.799z"/>
	<path fill="#D97651" d="M816.198,283.386l3.889,58.652c0.173,2.603-1.871,4.82-4.479,4.861l-28.81,0.446l3.997-21.327
		L816.198,283.386z"/>
	<path fill="#E7E7E7" d="M820.627,179.705c0,0-0.017,0.002-0.036,0.005C820.613,179.707,820.627,179.705,820.627,179.705z"/>
	<path fill="#E7E7E7" d="M820.653,179.73c-0.014-0.014-0.026-0.026-0.026-0.026S820.637,179.715,820.653,179.73z"/>
	<path fill="#E7E7E7" d="M820.567,179.713c-0.023,0.003-0.058,0.009-0.097,0.015C820.512,179.722,820.544,179.716,820.567,179.713z"
		/>
	<path fill="#E7E7E7" d="M819.506,179.897c-0.423,0.082-0.959,0.194-1.594,0.343C818.547,180.091,819.083,179.979,819.506,179.897z"
		/>
	<path fill="#E7E7E7" d="M822.483,181.757c-0.421-0.5-0.782-0.909-1.073-1.228C821.7,180.848,822.063,181.258,822.483,181.757z"/>
	<path fill="#E7E7E7" d="M820.738,179.816c-0.027-0.027-0.052-0.052-0.068-0.069C820.688,179.764,820.71,179.787,820.738,179.816z"
		/>
	<path fill="#E7E7E7" d="M821.376,180.493c-0.083-0.092-0.161-0.176-0.232-0.252C821.215,180.317,821.293,180.401,821.376,180.493z"
		/>
	<path fill="#E7E7E7" d="M821.12,180.215c-0.151-0.162-0.271-0.286-0.354-0.371C820.849,179.93,820.968,180.053,821.12,180.215z"/>
	<path fill="#E7E7E7" d="M819.896,179.825c-0.103,0.019-0.217,0.04-0.341,0.063C819.679,179.865,819.793,179.844,819.896,179.825z"
		/>
	<path fill="#E7E7E7" d="M819.924,179.819c0.021-0.003,0.046-0.008,0.066-0.012l-0.003,0.001
		C819.965,179.812,819.947,179.815,819.924,179.819z"/>
	<path fill="#959696" d="M789.963,195.065c1.357,1.335,2.795,2.604,4.305,3.803c-5.473,6.516-10.508,14.888-14.083,25.664
		c-13.026,39.256-21.023,85.661-24.271,112.565l-8.389-2.783c3.249-26.905,9.983-69.555,23.01-108.81
		c11.349-34.202,38.659-43.217,47.369-45.262C812.731,181.459,801.01,185.131,789.963,195.065z"/>
	<path fill="#E7E7E7" d="M819.99,179.807c0.19-0.034,0.335-0.057,0.441-0.073c-0.104,0.017-0.257,0.042-0.444,0.075L819.99,179.807z
		"/>
	<path fill="#C2C1C1" d="M780.185,224.532c3.575-10.776,8.61-19.148,14.083-25.664c4.914,3.906,10.609,7.053,16.96,9.16
		c8.303,2.755,16.768,3.424,24.798,2.321c-2.917-14.566-10.118-24.519-13.537-28.586c5.76,6.847,22.263,30.401,10.914,64.603
		c-13.025,39.255-33.124,77.471-46.604,100.979l-30.886-10.248C759.161,310.193,767.158,263.788,780.185,224.532z"/>
	<path fill="#D97651" d="M820.767,179.844c-0.01-0.01-0.02-0.019-0.028-0.028C820.748,179.826,820.756,179.833,820.767,179.844z"/>
	<path fill="#D97651" d="M820.67,179.747c-0.005-0.005-0.013-0.012-0.017-0.016C820.659,179.735,820.662,179.74,820.67,179.747z"/>
	<path fill="#D97651" d="M821.144,180.241c-0.008-0.008-0.016-0.018-0.023-0.025C821.128,180.224,821.136,180.232,821.144,180.241z"
		/>
	<path fill="#D97651" d="M817.912,180.241c-0.002,0.001-0.006,0.001-0.006,0.001S817.91,180.242,817.912,180.241z"/>
	<path fill="#D97651" d="M821.41,180.529c-0.011-0.013-0.022-0.024-0.034-0.037C821.388,180.505,821.399,180.517,821.41,180.529z"/>
	<path fill="#D97651" d="M822.488,181.764c-0.002-0.002-0.003-0.004-0.005-0.006C822.485,181.759,822.486,181.762,822.488,181.764z"
		/>
	<path fill="#D97651" d="M819.924,179.819c-0.009,0.002-0.02,0.003-0.028,0.005C819.905,179.823,819.915,179.821,819.924,179.819z"
		/>
	<path fill="#D97651" d="M820.471,179.728c-0.013,0.002-0.024,0.004-0.039,0.006C820.447,179.731,820.458,179.73,820.471,179.728z"
		/>
	<path fill="#D97651" d="M819.555,179.888c-0.016,0.003-0.032,0.006-0.049,0.009C819.522,179.895,819.539,179.892,819.555,179.888z"
		/>
	<path fill="#D97651" d="M820.591,179.709c-0.006,0.001-0.016,0.002-0.023,0.003C820.578,179.711,820.583,179.711,820.591,179.709z"
		/>
	<path fill="#D97651" d="M836.025,210.35c-8.03,1.103-16.495,0.434-24.798-2.321c-6.351-2.107-12.046-5.254-16.96-9.16
		c8.848-10.534,18.843-16.182,25.72-19.06c0.188-0.033,0.34-0.058,0.444-0.075c0.015-0.002,0.026-0.004,0.039-0.006
		c0.039-0.006,0.073-0.011,0.097-0.015c0.008-0.001,0.018-0.002,0.023-0.003c0.02-0.003,0.036-0.005,0.036-0.005
		s0.013,0.012,0.026,0.026c0.004,0.004,0.012,0.011,0.017,0.016c0.017,0.017,0.041,0.042,0.068,0.069
		c0.009,0.01,0.019,0.019,0.028,0.028c0.083,0.085,0.202,0.209,0.354,0.371c0.008,0.008,0.016,0.018,0.023,0.025
		c0.071,0.076,0.149,0.16,0.232,0.252c0.012,0.012,0.023,0.024,0.034,0.037c0.291,0.319,0.652,0.729,1.073,1.228
		c0.002,0.002,0.003,0.004,0.005,0.006C825.907,185.831,833.108,195.783,836.025,210.35z"/>
	<path fill="#C15946" d="M794.268,198.868c-1.51-1.199-2.947-2.468-4.305-3.803c11.047-9.934,22.769-13.606,27.94-14.822
		c0,0,0.007-0.001,0.009-0.002c0.635-0.149,1.171-0.261,1.594-0.343c0.017-0.003,0.033-0.006,0.049-0.009
		c0.124-0.023,0.238-0.044,0.341-0.063c0.009-0.002,0.02-0.003,0.028-0.005c0.023-0.004,0.041-0.007,0.063-0.011
		C813.11,182.687,803.115,188.334,794.268,198.868z"/>
	<path fill="#818180" d="M755.913,337.098l-7.493,22.305c-0.621,1.874,0.394,3.896,2.267,4.519l27.672,9.182l-0.121,0.368
		c-0.622,1.874-2.645,2.889-4.519,2.267l-32.683-10.846c-1.873-0.622-2.889-2.644-2.267-4.518l8.657-26.093l0.098,0.033
		L755.913,337.098z"/>
	<path fill="#A8A7A7" d="M748.42,359.402l7.493-22.305l30.886,10.248l0.097,0.032l-8.537,25.725l-27.672-9.182
		C748.813,363.298,747.799,361.276,748.42,359.402z"/>
	<path fill="#E7E7E7" d="M743.389,340.292L743.389,340.292c0.439-1.324,1.869-2.041,3.192-1.602l38.357,12.728
		c1.324,0.439,2.041,1.869,1.602,3.192l0,0c-0.439,1.324-1.869,2.041-3.192,1.603l-38.357-12.728
		C743.666,343.045,742.948,341.616,743.389,340.292z M742.296,351.606l38.356,12.727c1.323,0.439,2.753-0.278,3.192-1.602l0,0
		c0.439-1.324-0.277-2.753-1.602-3.193l-38.356-12.728c-1.324-0.439-2.754,0.278-3.193,1.602l0,0
		C740.255,349.737,740.971,351.167,742.296,351.606z M739.601,359.728l38.356,12.728c1.323,0.439,2.753-0.277,3.193-1.602l0,0
		c0.439-1.324-0.278-2.753-1.602-3.193l-38.357-12.728c-1.324-0.438-2.754,0.278-3.192,1.602l0,0
		C737.56,357.858,738.276,359.288,739.601,359.728z"/>
	<path fill="#C2C1C1" d="M752.623,341.268c-0.439,1.324,0.277,2.754,1.603,3.193l32.084,10.646
		c-0.594,0.996-1.816,1.484-2.962,1.104l-38.357-12.728c-1.324-0.439-2.042-1.869-1.602-3.192c0.439-1.324,1.869-2.041,3.192-1.602
		l6.272,2.082C752.762,340.926,752.682,341.091,752.623,341.268z"/>
	<path fill="#C2C1C1" d="M741.191,354.933l6.272,2.081c-0.092,0.155-0.172,0.319-0.23,0.498c-0.439,1.324,0.278,2.753,1.602,3.193
		l32.084,10.646c-0.594,0.996-1.815,1.484-2.962,1.104l-38.356-12.727c-1.324-0.439-2.041-1.869-1.603-3.193
		C738.438,355.211,739.867,354.494,741.191,354.933z"/>
	<path fill="#C2C1C1" d="M743.886,346.811l6.273,2.081c-0.093,0.155-0.172,0.321-0.231,0.498c-0.438,1.324,0.278,2.753,1.603,3.192
		l32.084,10.646c-0.594,0.996-1.816,1.484-2.962,1.104l-38.356-12.727c-1.325-0.44-2.041-1.87-1.603-3.194
		C741.133,347.089,742.562,346.372,743.886,346.811z"/>
	<path fill="#FFFFFF" d="M696.667,524.509c-3.178,7.178-11.717,17.839-9.85,21.397c4.423,8.427,18.518,17.663,22.004,15.089
		c4.036-2.979-2.863-13.098-2.863-13.098s7.32-13.972,8.083-15.693C708.25,529.639,702.458,527.075,696.667,524.509z"/>
	<path fill="#4C6F8B" d="M712.502,537.708c26.526-58.807,46.146-120.514,58.448-183.89c1.123-5.766-2.566-11.264-8.149-12.261
		c-5.585-0.997-10.927,2.748-12.016,8.347c-12.001,61.814-31.137,122.001-57.009,179.357
		C700.02,532.078,706.261,534.893,712.502,537.708z"/>
	<path fill="#6A4936" d="M684,558.701c-3.219-4.357-6.438-8.713-9.657-13.069c-0.325-0.439-0.23-1.062,0.211-1.389
		c0.677-0.501,1.352-1.003,2.026-1.507c0.441-0.326,1.063-0.239,1.391,0.199c3.441,4.603,6.882,9.205,10.323,13.809
		c-0.961,0.717-1.923,1.434-2.887,2.148C684.956,559.227,684.325,559.141,684,558.701z"/>
	<path fill="#6A4936" d="M688.116,564.269c8.56,11.584,17.119,23.168,25.68,34.752c0.326,0.439,0.979,0.51,1.457,0.154
		c0.734-0.543,1.466-1.086,2.197-1.633c0.478-0.355,0.6-1.002,0.271-1.439c-9.809-13.12-19.618-26.24-29.428-39.359
		c-0.111,2.294-0.234,4.592-0.365,6.893C687.916,563.865,687.981,564.087,688.116,564.269z"/>
	<path fill="#A47147" d="M723.819,569.952c-5.854-7.454-11.711-14.908-17.566-22.362c-0.684-0.279-2.491,0.037-2.52,1.227
		c2.073,2.536,1.398,6.735-2.237,5.726c-3.632-1.017-8.969-9.533-6.11-12.966c2.1-2.525-0.001-6.978-1.276-9.182
		c-0.413-0.714-1.358-0.893-2.008-0.384c-4.688,3.667-9.416,7.284-14.186,10.851c13.224,17.687,26.446,35.373,39.669,53.059
		c0.708-0.529,1.416-1.061,2.123-1.592C727.814,588.233,729.585,577.232,723.819,569.952z"/>
	<path fill="#F0D3AA" d="M807.542,319.866c-13.533,0-28.723-2.131-37.707-10.207c-8.6-7.729-5.461-22.531,11.579-54.614
		c10.015-18.854,21.078-36.262,21.545-36.994c2.804-4.406,8.648-5.702,13.055-2.897c4.406,2.805,5.702,8.651,2.897,13.056
		c-0.094,0.147-9.473,14.906-18.486,31.423c-13.101,24.006-15.692,33.877-16.182,37.237c9.221,5.46,32.276,4.562,46.812,1.967
		c5.13-0.916,10.053,2.501,10.973,7.641c0.922,5.138-2.492,10.05-7.63,10.975C830.7,318.118,819.801,319.866,807.542,319.866z"/>
	<path fill="#FFFFFF" d="M788.47,287.875c2.254-5.875,6.289-14.777,13.51-27.976c8.912-16.285,18.1-30.744,18.191-30.888
		c3.247-5.102,1.745-11.87-3.354-15.118c-5.098-3.244-11.868-1.747-15.118,3.354c-0.467,0.734-11.562,18.19-21.603,37.096
		c-7.185,13.529-11.922,24.074-14.37,32.384C773.198,285.818,780.881,286.146,788.47,287.875z"/>
	<path fill="#E7E7E7" d="M784.704,295.932l-19.541-4.55c-1.207-0.281-1.949-1.518-1.658-2.763l2.002-8.603
		c0.29-1.246,1.504-2.028,2.709-1.747l19.542,4.549c1.206,0.281,1.948,1.519,1.658,2.764l-2.003,8.603
		C787.123,295.431,785.91,296.213,784.704,295.932z"/>
	<path fill="#D97651" d="M842.552,291.413l-6.141-2.038c-0.52-0.173-0.805-0.739-0.632-1.258l0.979-2.952
		c0.173-0.52,0.739-0.804,1.259-0.631l6.142,2.038c0.52,0.173,0.803,0.739,0.63,1.258l-0.979,2.952
		C843.638,291.301,843.071,291.585,842.552,291.413z"/>
	<path fill="#2E2E2E" d="M829.784,331.205l-6.928-2.299c-1.559-0.517-2.41-2.216-1.894-3.774l11.887-35.822
		c0.517-1.559,2.216-2.411,3.774-1.894l6.929,2.299c1.558,0.517,2.41,2.216,1.894,3.774l-11.887,35.822
		C833.042,330.87,831.343,331.722,829.784,331.205z"/>
	<circle fill="#F0D3AA" cx="832.927" cy="307.531" r="17.334"/>
	<path fill="#A8A7A7" d="M829.428,338.603l-64.599-21.435c-0.52-0.173-0.803-0.739-0.631-1.258l1.62-4.882
		c0.173-0.52,0.739-0.804,1.259-0.631l64.597,21.436c0.52,0.173,0.804,0.738,0.632,1.258l-1.62,4.881
		C830.513,338.491,829.947,338.775,829.428,338.603z"/>
	<path fill="#818180" d="M831.674,331.832l-1.098-0.365l-1.254,3.779c-0.173,0.52-0.739,0.804-1.259,0.631l-63.499-21.071
		l-0.366,1.103c-0.172,0.519,0.111,1.085,0.631,1.258l64.599,21.435c0.52,0.172,1.085-0.112,1.258-0.631l1.62-4.881
		C832.478,332.569,832.193,332.005,831.674,331.832z"/>
	<circle fill="#F0D3AA" cx="831.507" cy="290.282" r="7.216"/>
	<polygon fill="#DFDDDD" points="773.351,186.713 801.256,199.535 795.141,210.898 767.095,197.037 	"/>
	
		<rect x="769.098" y="185.067" transform="matrix(-0.8716 -0.4902 0.4902 -0.8716 1369.1802 757.5306)" fill="#F0D3AA" width="29.409" height="28.759"/>
	<path fill="#D7BC94" d="M772.282,189.936c4.344,3.904,9.539,7.005,15.438,8.962l11.175,3.708l4.772-8.484l-25.632-14.417
		L772.282,189.936z"/>
	<path fill="#FFFFFF" d="M814.222,211.909l-14.739-4.891l-12.145,9.052l-12.233-17.141l-27.527-9.134
		c-5.967-1.98-12.41,1.252-14.39,7.219L695.482,310.64c-4.768,14.369,3.017,29.885,17.386,34.652l36.215,12.017
		c14.37,4.769,29.885-3.015,34.653-17.385l37.704-113.626C823.421,220.331,820.188,213.888,814.222,211.909z"/>
	<path fill="#F0D3AA" d="M790.659,195.342l13.019,4.32c17.015,5.646,35.386-3.57,41.031-20.586l19.429-58.551
		c2.354-7.089-1.487-14.742-8.576-17.095l-59.628-19.786c-7.088-2.353-14.741,1.487-17.094,8.576l-15.892,47.889
		C755.349,163.014,767.755,187.742,790.659,195.342z"/>
	<path fill="#E5A087" d="M823.032,166.405L823.032,166.405c2.546,0.846,5.322-0.547,6.166-3.094l4.557-13.729
		c0.845-2.547-0.548-5.323-3.095-6.168l0,0c-2.547-0.845-5.321,0.547-6.166,3.094l-4.556,13.729
		C819.093,162.785,820.485,165.56,823.032,166.405z"/>
	<path fill="#D7BC94" d="M795.934,83.645l59.628,19.786c7.089,2.353,10.93,10.006,8.576,17.095l-7.902,23.814
		c-20.319-4.104-39.836-21.108-46.094-32.443c-19.802-35.871-43.229,17.76-43.229,17.76s-0.167-0.056-0.446-0.148l12.373-37.288
		C781.192,85.131,788.846,81.292,795.934,83.645z"/>
	<path opacity="0.4" fill="#E5A087" d="M836.76,159.823l-0.31,0.934c-0.18,0.539,0.112,1.119,0.65,1.298l10.926,3.625
		c0.539,0.178,1.12-0.113,1.299-0.651l0.311-0.934c0.178-0.539-0.113-1.119-0.652-1.298l-10.926-3.626
		C837.519,158.993,836.938,159.284,836.76,159.823z"/>
	<path fill="#4F382B" d="M813.995,109.658c8.168,14.794,38.922,39.248,64.57,32.067c37.749-10.567,30.229-64.459-0.682-64.255
		c0.234,13.424-7.364,18.659-7.364,18.659s-50.719-56.69-87.421-16.744c0.991-7.607-3.326-17.967-7.85-16.546
		c-6.606,2.076-1.604,14.055,6.373,17.191c-6.482-1.663-13.924-0.164-13.23,4.214c0.607,3.838,11.898-0.2,13.412-2.042
		c-5.028,4.283-14.845,31.146-14.286,44.138c1.625,0.539,3.25,1.079,3.25,1.079S794.193,73.788,813.995,109.658z"/>
	<circle fill="#F0D3AA" cx="764.049" cy="133.125" r="10.271"/>
	<circle fill="#D7BC94" cx="762.411" cy="132.153" r="4.558"/>
	<path fill="#FFFFFF" d="M807.581,185.583l17.062,5.661l4.771-14.379l-31.44-10.432l0,0
		C795.339,174.373,799.64,182.947,807.581,185.583z"/>
	<path opacity="0.4" fill="#E5A087" d="M815.963,152.921l-0.311,0.935c-0.179,0.539-0.759,0.831-1.298,0.65l-10.926-3.625
		c-0.539-0.178-0.831-0.76-0.652-1.298l0.311-0.934c0.179-0.539,0.76-0.83,1.299-0.651l10.926,3.626
		C815.85,151.802,816.142,152.383,815.963,152.921z"/>
	<path fill="#2A2A2A" d="M844.457,157.823c3.23,1.072,6.719-0.678,7.79-3.908l-11.698-3.882
		C839.478,153.263,841.228,156.75,844.457,157.823z"/>
	<path fill="#2A2A2A" d="M810.886,146.683c3.23,1.072,6.719-0.678,7.79-3.908l-11.698-3.882
		C805.906,142.123,807.655,145.61,810.886,146.683z"/>
	<path fill="#4F382B" d="M841.981,148.163l14.927,4.954c0.808,0.268,1.679-0.17,1.947-0.978l1.071-3.229
		c0.269-0.808-0.169-1.679-0.977-1.948l-14.928-4.953c-0.807-0.268-1.68,0.17-1.947,0.977l-1.071,3.229
		C840.736,147.023,841.173,147.895,841.981,148.163z"/>
	<path fill="#4F382B" d="M808.552,137.07l14.928,4.954c0.808,0.268,1.68-0.169,1.947-0.978l1.072-3.229
		c0.268-0.808-0.17-1.68-0.979-1.948l-14.927-4.953c-0.808-0.268-1.68,0.169-1.947,0.977l-1.071,3.229
		C807.308,135.931,807.745,136.803,808.552,137.07z"/>
	<path fill="#4D7699" d="M696.877,306.439l-2.593,7.815c-4.106,12.374,2.596,25.733,14.97,29.839l45.223,15.005
		c11.392,3.78,23.69-2.39,27.47-13.781l3.184-9.594L696.877,306.439z"/>
	<polygon fill="#4B718D" points="788.642,208.335 786.927,224.102 795.891,220.12 	"/>
	<polygon fill="#4B718D" points="788.642,208.335 778.272,214.665 786.927,224.102 	"/>
	<polygon fill="#4B718D" points="788.885,218.963 775.898,289.865 762.374,298.052 755.812,283.472 	"/>
	<path opacity="0.16" fill="#181A1A" d="M759.078,193.61l15.371,24.286c0.424,0.669,1.336,0.82,1.953,0.323l12.239-9.883
		L759.078,193.61z"/>
	<path fill="#181A1A" d="M790.411,253.01l-0.955-0.317c-0.566-0.188-0.873-0.799-0.686-1.366l3.43-10.337
		c0.189-0.566,0.801-0.873,1.367-0.686l0.955,0.317c0.565,0.188,0.873,0.8,0.684,1.366l-3.43,10.338
		C791.589,252.891,790.978,253.198,790.411,253.01z"/>
	<path opacity="0.16" fill="#181A1A" d="M788.642,208.335l5.401,12.93c0.431,1.033,1.871,1.099,2.395,0.109l6.915-13.073
		L788.642,208.335z"/>
	<path fill="#FFFFFF" d="M759.078,193.61l14.272-6.897l15.291,21.622l-11.791,7.198c-0.585,0.357-1.346,0.209-1.754-0.341
		L759.078,193.61z"/>
	<path fill="#FFFFFF" d="M788.642,208.335l6.283,10.979c0.512,0.895,1.807,0.888,2.309-0.014l6.119-10.999l-2.097-8.767
		L788.642,208.335z"/>
	<path fill="#4B718D" d="M717.349,313.232l-20.472-6.793l-2.593,7.815c-0.885,2.662-1.264,5.369-1.197,8.021
		C703.946,325.311,714.632,321.422,717.349,313.232z"/>
	<path fill="#E7E7E7" d="M799.053,261.595l-6.815,0.652c-0.526,0.05-1.05-0.124-1.441-0.479l-5.072-4.597
		c-0.552-0.5-0.756-1.277-0.522-1.984l3.659-11.027c0.327-0.985,1.391-1.519,2.375-1.191l11.889,3.944
		c0.985,0.327,1.519,1.391,1.191,2.375l-3.659,11.027C800.423,261.023,799.794,261.524,799.053,261.595z"/>
	<path fill="#B3B1B3" d="M791.791,248.08l-0.493-0.165c-0.207-0.068-0.318-0.291-0.25-0.497l2.375-7.16
		c0.069-0.206,0.292-0.317,0.498-0.249l0.493,0.163c0.206,0.069,0.317,0.292,0.249,0.498l-2.375,7.159
		C792.22,248.036,791.997,248.147,791.791,248.08z"/>
	<path fill="#FFFFFF" d="M644.233,507.11c-3.178,7.177-11.717,17.84-9.85,21.397c4.423,8.429,18.518,17.664,22.004,15.09
		c4.036-2.979-2.863-13.099-2.863-13.099s7.32-13.972,8.083-15.692C655.815,512.241,650.024,509.675,644.233,507.11z"/>
	<path fill="#4D7699" d="M660.068,520.31c26.526-58.807,46.146-120.514,58.448-183.889c1.122-5.767-2.566-11.266-8.15-12.262
		c-5.585-0.997-10.926,2.749-12.015,8.347c-12.001,61.812-31.137,122.001-57.009,179.357
		C647.585,514.678,653.827,517.494,660.068,520.31z"/>
	<path fill="#6A4936" d="M631.565,541.302c-3.219-4.356-6.438-8.713-9.657-13.069c-0.325-0.439-0.229-1.062,0.212-1.39
		c0.677-0.5,1.352-1.002,2.026-1.505c0.44-0.328,1.063-0.24,1.391,0.198c3.441,4.602,6.882,9.205,10.323,13.807
		c-0.961,0.719-1.923,1.436-2.887,2.148C632.522,541.828,631.892,541.742,631.565,541.302z"/>
	<path fill="#6A4936" d="M635.682,546.871c8.561,11.584,17.12,23.167,25.681,34.751c0.326,0.44,0.978,0.51,1.457,0.155
		c0.733-0.543,1.466-1.088,2.197-1.633c0.478-0.357,0.6-1.002,0.271-1.439c-9.81-13.121-19.618-26.24-29.428-39.361
		c-0.111,2.295-0.234,4.594-0.366,6.894C635.481,546.465,635.546,546.689,635.682,546.871z"/>
	<path fill="#A47147" d="M671.386,552.554c-5.855-7.455-11.711-14.91-17.566-22.364c-0.684-0.28-2.491,0.036-2.52,1.226
		c2.073,2.537,1.398,6.737-2.237,5.727c-3.632-1.017-8.97-9.533-6.11-12.964c2.1-2.525-0.001-6.978-1.277-9.183
		c-0.412-0.714-1.357-0.893-2.008-0.385c-4.688,3.668-9.415,7.285-14.185,10.852c13.223,17.687,26.446,35.373,39.669,53.059
		c0.708-0.53,1.416-1.061,2.123-1.593C675.381,570.833,677.149,559.833,671.386,552.554z"/>
	<path fill="#F0D3AA" d="M735.222,295.868c-13.532,0-28.722-2.131-37.707-10.207c-8.6-7.729-5.461-22.531,11.58-54.614
		c10.014-18.854,21.077-36.262,21.544-36.994c2.805-4.406,8.647-5.701,13.056-2.897c4.405,2.805,5.702,8.65,2.897,13.056
		c-0.095,0.146-9.475,14.906-18.486,31.423c-13.101,24.005-15.692,33.877-16.182,37.237c9.221,5.46,32.276,4.562,46.811,1.966
		c5.137-0.914,10.054,2.501,10.974,7.641c0.921,5.139-2.492,10.05-7.631,10.975C758.381,294.119,747.481,295.868,735.222,295.868z"
		/>
	<path fill="#FFFFFF" d="M716.149,263.878c2.254-5.875,6.29-14.778,13.511-27.976c8.911-16.285,18.099-30.745,18.19-30.888
		c3.248-5.102,1.745-11.87-3.354-15.117c-5.098-3.244-11.868-1.747-15.117,3.354c-0.468,0.734-11.562,18.19-21.603,37.096
		c-7.186,13.528-11.923,24.074-14.371,32.383C700.878,261.82,708.561,262.149,716.149,263.878z"/>
	<path fill="#E7E7E7" d="M712.384,271.935l-19.541-4.549c-1.206-0.282-1.949-1.519-1.658-2.765l2.002-8.603
		c0.291-1.245,1.503-2.028,2.709-1.747l19.541,4.55c1.207,0.281,1.949,1.518,1.659,2.764l-2.003,8.603
		C714.803,271.433,713.591,272.215,712.384,271.935z"/>
	<circle fill="#F0D3AA" cx="759.187" cy="266.285" r="7.217"/>
	<path fill="#D97651" d="M770.231,267.415l-6.141-2.038c-0.52-0.172-0.804-0.738-0.631-1.258l0.979-2.953
		c0.173-0.519,0.74-0.803,1.259-0.63l6.141,2.038c0.521,0.172,0.804,0.738,0.632,1.258l-0.979,2.952
		C771.317,267.303,770.751,267.587,770.231,267.415z"/>
	<path fill="#2E2E2E" d="M757.464,307.207l-6.928-2.299c-1.559-0.518-2.411-2.216-1.893-3.775l11.887-35.822
		c0.517-1.558,2.215-2.41,3.773-1.894l6.929,2.299c1.559,0.517,2.411,2.215,1.894,3.774l-11.887,35.822
		C760.722,306.872,759.023,307.724,757.464,307.207z"/>
	<circle fill="#F0D3AA" cx="760.606" cy="283.534" r="17.334"/>
	<path fill="#A8A7A7" d="M757.107,314.605l-64.598-21.436c-0.52-0.172-0.804-0.738-0.632-1.258l1.62-4.881
		c0.173-0.52,0.738-0.804,1.259-0.631l64.598,21.436c0.52,0.172,0.803,0.738,0.631,1.258l-1.619,4.881
		C758.193,314.494,757.627,314.777,757.107,314.605z"/>
	<path fill="#818180" d="M759.354,307.834l-1.098-0.365l-1.255,3.779c-0.172,0.52-0.738,0.804-1.258,0.631l-63.499-21.071
		l-0.367,1.102c-0.172,0.52,0.112,1.086,0.632,1.258l64.598,21.436c0.52,0.172,1.086-0.111,1.259-0.631l1.619-4.881
		C760.157,308.573,759.874,308.006,759.354,307.834z"/>
</g>
</svg>
