<?xml version="1.0" encoding="utf-8"?>
<!-- Generator: Adobe Illustrator 16.0.0, SVG Export Plug-In . SVG Version: 6.00 Build 0)  -->
<!DOCTYPE svg PUBLIC "-//W3C//DTD SVG 1.1//EN" "http://www.w3.org/Graphics/SVG/1.1/DTD/svg11.dtd">
<svg version="1.1" id="Capa_1" xmlns="http://www.w3.org/2000/svg" xmlns:xlink="http://www.w3.org/1999/xlink" x="0px" y="0px"
	 width="2677.986px" height="341.938px" viewBox="0 0 2677.986 341.938" enable-background="new 0 0 2677.986 341.938"
	 xml:space="preserve">
<path display="none" fill="#001430" d="M1784.303,179.222c0,0,32.402-20.273,36.742-20.274c4.342-0.001,34.929,11.274,64.651,20.693
	c29.569,9.371,53.812-17.047,55.241-7.833s45.754,28.511,45.754,28.511l9.746-10.512l23.959,10.512c0,0,40.312,66.468,52.845,69.468
	s52.1-31.982,59.261-28.982c7.162,3,38.881,41.257,57.617,40.322c5.916-0.295,15.787-14.823,15.787-14.823s17.455,5.44,24.812,8.999
	c7.356,3.559,17.507-12.499,17.507-12.499l40.035,18.323c0,0,33.99-18.271,69.811-45.296c0,0,57.201,8.936,64.465,16.471
	c7.266,7.535,44.416-33.466,44.416-33.466s24.939,9.011,31.996,5.561c14.365-7.024,21.219-27.481,21.219-27.481
	s22.342,1.903,36.721-0.193l15.498-19c0,0,32.803,9.957,38.74,4.5c11.885-10.92,28.609-27.5,28.609-27.5l37.082,24.5l0.168,162.717
	h-892.534L1784.303,179.222z"/>
<path display="none" fill="#001430" d="M0.937,179.222c0,0,32.402-20.273,36.743-20.274s34.928,11.274,64.651,20.693
	c29.57,9.371,53.812-17.047,55.241-7.833s45.754,28.511,45.754,28.511l9.747-10.512l23.958,10.512c0,0,40.313,66.468,52.845,69.468
	c12.533,3,52.1-31.982,59.261-28.982c7.162,3,38.881,41.257,57.616,40.322c5.917-0.295,15.788-14.823,15.788-14.823
	s17.454,5.44,24.812,8.999s17.508-12.499,17.508-12.499l40.035,18.323c0,0,33.99-18.271,69.811-45.296c0,0,57.2,8.936,64.464,16.471
	c7.266,7.535,44.416-33.466,44.416-33.466s24.94,9.011,31.996,5.561c14.365-7.024,21.22-27.481,21.22-27.481
	s22.341,1.903,36.721-0.193l15.497-19c0,0,32.803,9.957,38.741,4.5c11.885-10.92,28.608-27.5,28.608-27.5l37.083,24.5l0.168,162.717
	H1.085L0.937,179.222z"/>
<path display="none" fill="#001430" d="M892.62,179.222c0,0,32.402-20.273,36.743-20.274s34.928,11.274,64.651,20.693
	c29.57,9.371,53.812-17.047,55.241-7.833s45.754,28.511,45.754,28.511l9.747-10.512l23.958,10.512c0,0,40.313,66.468,52.845,69.468
	c12.533,3,52.1-31.982,59.261-28.982c7.162,3,38.881,41.257,57.616,40.322c5.917-0.295,15.789-14.823,15.789-14.823
	s17.454,5.44,24.812,8.999c7.357,3.559,17.508-12.499,17.508-12.499l40.035,18.323c0,0,33.99-18.271,69.81-45.296
	c0,0,57.2,8.936,64.464,16.471c7.266,7.535,44.416-33.466,44.416-33.466s24.94,9.011,31.996,5.561
	c14.365-7.024,21.22-27.481,21.22-27.481s22.341,1.903,36.721-0.193l15.497-19c0,0,32.803,9.957,38.741,4.5
	c11.885-10.92,28.608-27.5,28.608-27.5l37.083,24.5l0.168,162.717H892.769L892.62,179.222z"/>
<path fill="#001430" d="M-4.003,249.417c0,0,123.774-78.761,167.325-103.065c43.552-24.304,90.453-37.397,110.554-34.202
	c20.101,3.194,15.612-3.195,68.108,0c52.496,3.194,85.998-10.213,109.447-16.916c23.451-6.704,42.436-19.011,80.407-3.353
	c25.132,10.37,26.705,13.722,40.151,20.269c0,0,31.872,1.518,77.098,11.574s68.678,25.649,85.428,35.449
	c16.751,9.801,26.801,19.855,53.601,19.855c26.801,0,77.054-1.675,90.455,1.676c13.399,3.352,31.825,1.676,46.9,10.056
	s26.801,21.787,33.501,23.462c6.7,1.676,6.7,16.759,28.476,16.759s58.627-1.675,70.352,3.353
	c11.725,5.026,43.552,5.026,43.552,5.026s25.126,15.084,33.5,10.056c8.376-5.028,8.376,5.028,58.627,11.731
	c50.254,6.704,68.679,3.263,93.804,10.847c25.126,7.588,98.83,12.616,118.931,9.264c20.101-3.353,102.177-31.842,142.38-45.25
	c40.201-13.407,73.703-11.731,82.079-13.407c8.373-1.676,33.498-15.453,77.052-17.783c43.551-2.328,87.102-12.383,92.13-15.735
	c5.023-3.352,67-10.893,78.724-20.949c11.729-10.056,40.202-21.787,40.202-21.787s35.178-39.383,70.353-17.597
	c35.177,21.787,102.177-13.093,139.031-16.602c36.85-3.509,80.4,3.509,154.104,0s140.703-23.62,149.08-26.972
	c8.376-3.352,31.825-13.407,56.951-6.703c25.125,6.703,63.65,22.1,87.104,33.675c23.449,11.574,102.034,50.12,102.034,50.12v708.952
	H-4.003V272.726V249.417z"/>
</svg>
