<?xml version="1.0" encoding="utf-8"?>
<!-- Generator: Adobe Illustrator 16.0.0, SVG Export Plug-In . SVG Version: 6.00 Build 0)  -->
<!DOCTYPE svg PUBLIC "-//W3C//DTD SVG 1.1//EN" "http://www.w3.org/Graphics/SVG/1.1/DTD/svg11.dtd">
<svg version="1.1" id="Capa_1" xmlns="http://www.w3.org/2000/svg" xmlns:xlink="http://www.w3.org/1999/xlink" x="0px" y="0px"
	 width="476.977px" height="146.993px" viewBox="0 0 476.977 146.993" enable-background="new 0 0 476.977 146.993"
	 xml:space="preserve">
<g enable-background="new    ">
	<path fill="#1E88E5" d="M37.324,40.299H17.23v-9.88h51.855v9.88H48.991V91.78H37.324V40.299z"/>
	<path fill="#1E88E5" d="M77.047,30.418h11.667v24.44h30.65v-24.44h11.667V91.78h-11.667V64.739h-30.65V91.78H77.047V30.418z"/>
	<path fill="#1E88E5" d="M198.165,69.246c0,3.698-0.68,7.035-2.037,10.01c-1.358,2.977-3.21,5.504-5.556,7.584
		c-2.347,2.08-5.125,3.683-8.334,4.81c-3.21,1.126-6.699,1.69-10.463,1.69c-3.766,0-7.254-0.563-10.463-1.69
		c-3.21-1.127-6.004-2.73-8.38-4.81c-2.377-2.08-4.229-4.607-5.556-7.584c-1.328-2.975-1.991-6.312-1.991-10.01V30.418h11.667
		v38.481c0,1.503,0.246,3.077,0.741,4.724c0.494,1.646,1.311,3.164,2.454,4.55c1.142,1.387,2.653,2.528,4.537,3.423
		c1.882,0.896,4.213,1.343,6.991,1.343s5.107-0.447,6.991-1.343c1.882-0.895,3.394-2.037,4.537-3.423
		c1.142-1.387,1.959-2.904,2.454-4.55c0.493-1.647,0.741-3.22,0.741-4.724V30.418h11.667V69.246z"/>
	<path fill="#1E88E5" d="M212.516,30.418h15.463l31.761,45.588h0.185V30.418h11.667V91.78h-14.815l-32.409-47.062h-0.185V91.78
		h-11.667V30.418z"/>
	<path fill="#1E88E5" d="M286.223,30.418h25.835c4.319,0,8.486,0.622,12.5,1.863c4.013,1.243,7.562,3.135,10.649,5.677
		c3.086,2.543,5.556,5.735,7.407,9.577c1.853,3.843,2.778,8.363,2.778,13.563c0,5.259-1.065,9.809-3.195,13.65
		c-2.129,3.843-4.877,7.021-8.241,9.534c-3.365,2.514-7.1,4.392-11.204,5.634c-4.105,1.243-8.134,1.863-12.084,1.863h-24.445V30.418
		z M306.594,81.9c3.642,0,7.084-0.39,10.325-1.17c3.24-0.78,6.064-1.994,8.473-3.64c2.407-1.647,4.306-3.784,5.694-6.414
		c1.389-2.628,2.083-5.82,2.083-9.577c0-3.697-0.617-6.875-1.852-9.534c-1.235-2.657-2.948-4.81-5.139-6.457
		c-2.192-1.647-4.785-2.86-7.778-3.64c-2.995-0.78-6.282-1.17-9.862-1.17H297.89V81.9H306.594z"/>
	<path fill="#1E88E5" d="M356.503,30.418h43.428v9.88H368.17v15.08h30.095v9.88H368.17V81.9h33.428v9.88h-45.095V30.418z"/>
</g>
<polyline fill="#F1CC0E" points="420.412,30.181 405.843,65.439 417.277,65.165 414.255,91.787 434.619,56.184 420.429,56.031 
	434.984,30.181 "/>
<g>
	<g>
		<defs>
			<rect id="SVGID_1_" x="-38.604" y="-82.328" width="584.986" height="332.892"/>
		</defs>
		<clipPath id="SVGID_2_">
			<use xlink:href="#SVGID_1_"  overflow="visible"/>
		</clipPath>
		<path clip-path="url(#SVGID_2_)" fill="#1E88E5" d="M437.679,30.247c0,0,21.173-0.704,21.702,16.776
			c0.53,17.48-15.254,17.374-15.254,17.374l17.373,27.39h-14.619l-14.568-25.888l-0.729-0.016l5.42-9.635
			c0,0,10.139,1.338,10.139-8.253c0,0,1.479-8.177-12.158-8.327l-2.602-0.006"/>
	</g>
	<g>
		<defs>
			<rect id="SVGID_3_" x="-38.604" y="-82.328" width="584.986" height="332.892"/>
		</defs>
		<clipPath id="SVGID_4_">
			<use xlink:href="#SVGID_3_"  overflow="visible"/>
		</clipPath>
		<polygon clip-path="url(#SVGID_4_)" fill="#1E88E5" points="417.016,91.781 423.643,91.787 423.643,80 		"/>
	</g>
</g>
<g enable-background="new    ">
	<path fill="#666666" d="M274.365,100.954h-9.337v-2.167h21.221v2.167h-9.337v23.401h-2.547V100.954z"/>
</g>
<g enable-background="new    ">
	<path fill="#666666" d="M301.296,121.213c-0.9,1.276-2.013,2.191-3.337,2.744c-1.325,0.554-2.785,0.831-4.38,0.831
		c-1.363,0-2.598-0.216-3.703-0.65c-1.106-0.433-2.059-1.041-2.855-1.824c-0.798-0.782-1.408-1.709-1.833-2.78
		c-0.424-1.071-0.637-2.257-0.637-3.557c0-1.251,0.219-2.407,0.656-3.467c0.438-1.059,1.055-1.98,1.852-2.763
		c0.798-0.782,1.736-1.396,2.817-1.842c1.08-0.445,2.276-0.668,3.588-0.668c1.363,0,2.565,0.223,3.607,0.668
		c1.042,0.446,1.916,1.036,2.623,1.77c0.708,0.735,1.241,1.571,1.602,2.51s0.54,1.89,0.54,2.853v1.517h-14.97
		c0,0.458,0.097,1.042,0.289,1.751c0.193,0.71,0.547,1.403,1.062,2.077c0.514,0.674,1.202,1.252,2.063,1.733
		c0.862,0.481,1.975,0.722,3.338,0.722c1.183,0,2.327-0.265,3.434-0.794c1.105-0.529,1.955-1.251,2.547-2.167L301.296,121.213z
		 M299.521,114.604c0-0.746-0.161-1.444-0.482-2.094c-0.322-0.65-0.759-1.222-1.312-1.715c-0.554-0.493-1.21-0.885-1.968-1.174
		c-0.76-0.289-1.562-0.433-2.412-0.433c-1.26,0-2.309,0.241-3.145,0.722c-0.836,0.482-1.498,1.035-1.986,1.661
		c-0.489,0.626-0.836,1.234-1.042,1.824s-0.309,0.993-0.309,1.209H299.521z"/>
	<path fill="#666666" d="M321.938,121.899c-0.874,0.987-1.865,1.715-2.971,2.185c-1.106,0.47-2.302,0.704-3.588,0.704
		c-1.363,0-2.624-0.216-3.781-0.65c-1.157-0.433-2.147-1.041-2.971-1.824c-0.823-0.782-1.466-1.709-1.929-2.78
		s-0.695-2.245-0.695-3.521c0-1.276,0.232-2.45,0.695-3.521s1.105-1.998,1.929-2.781c0.823-0.782,1.813-1.39,2.971-1.824
		c1.157-0.433,2.418-0.65,3.781-0.65c1.312,0,2.527,0.253,3.646,0.758c1.118,0.505,2.115,1.216,2.989,2.131l-1.852,1.3
		c-0.669-0.698-1.402-1.246-2.199-1.643c-0.798-0.397-1.659-0.596-2.585-0.596c-1.08,0-2.059,0.18-2.933,0.542
		s-1.62,0.849-2.237,1.462c-0.617,0.614-1.087,1.336-1.408,2.167c-0.322,0.831-0.482,1.715-0.482,2.654s0.16,1.824,0.482,2.654
		c0.321,0.831,0.791,1.553,1.408,2.167s1.363,1.102,2.237,1.462c0.874,0.361,1.853,0.542,2.933,0.542
		c0.978,0,1.871-0.21,2.682-0.632c0.81-0.421,1.511-0.98,2.103-1.679L321.938,121.899z"/>
	<path fill="#666666" d="M325.564,97.054h2.314v13.542h0.077c0.463-0.915,1.234-1.703,2.315-2.365
		c1.08-0.662,2.34-0.993,3.781-0.993c1.389,0,2.521,0.205,3.395,0.614c0.874,0.41,1.562,0.945,2.064,1.607
		c0.502,0.663,0.849,1.427,1.042,2.293c0.192,0.867,0.289,1.757,0.289,2.672v9.931h-2.315v-9.823c0-0.673-0.064-1.33-0.192-1.968
		c-0.129-0.638-0.354-1.21-0.675-1.715c-0.322-0.506-0.772-0.909-1.351-1.21c-0.579-0.301-1.331-0.451-2.257-0.451
		c-0.85,0-1.653,0.139-2.412,0.415c-0.759,0.277-1.415,0.699-1.968,1.264c-0.553,0.566-0.99,1.276-1.312,2.13
		c-0.322,0.855-0.482,1.86-0.482,3.016v8.342h-2.314V97.054z"/>
	<path fill="#666666" d="M347.016,112.365c0-0.312-0.014-0.692-0.039-1.138c-0.025-0.445-0.045-0.896-0.058-1.354
		c-0.014-0.457-0.032-0.885-0.058-1.282c-0.026-0.397-0.039-0.704-0.039-0.921h2.315c0.025,0.626,0.044,1.228,0.058,1.806
		c0.013,0.578,0.045,0.952,0.097,1.12h0.115c0.463-0.915,1.234-1.703,2.315-2.365c1.08-0.662,2.34-0.993,3.781-0.993
		c1.389,0,2.521,0.205,3.395,0.614c0.874,0.41,1.562,0.945,2.064,1.607c0.502,0.663,0.849,1.427,1.042,2.293
		c0.192,0.867,0.289,1.757,0.289,2.672v9.931h-2.315v-9.823c0-0.673-0.064-1.33-0.192-1.968c-0.129-0.638-0.354-1.21-0.675-1.715
		c-0.322-0.506-0.772-0.909-1.351-1.21c-0.579-0.301-1.331-0.451-2.257-0.451c-0.85,0-1.653,0.139-2.412,0.415
		c-0.759,0.277-1.415,0.699-1.968,1.264c-0.553,0.566-0.99,1.276-1.312,2.13c-0.322,0.855-0.482,1.86-0.482,3.016v8.342h-2.314
		V112.365z"/>
	<path fill="#666666" d="M367.464,116.013c0-1.276,0.232-2.45,0.695-3.521s1.105-1.998,1.929-2.781
		c0.823-0.782,1.813-1.39,2.971-1.824c1.157-0.433,2.418-0.65,3.781-0.65s2.617,0.217,3.762,0.65
		c1.145,0.434,2.135,1.042,2.971,1.824c0.836,0.783,1.485,1.709,1.948,2.781s0.695,2.245,0.695,3.521
		c0,1.276-0.232,2.45-0.695,3.521s-1.112,1.999-1.948,2.78c-0.836,0.783-1.826,1.391-2.971,1.824
		c-1.145,0.434-2.398,0.65-3.762,0.65s-2.624-0.216-3.781-0.65c-1.157-0.433-2.147-1.041-2.971-1.824
		c-0.823-0.782-1.466-1.709-1.929-2.78S367.464,117.289,367.464,116.013z M369.779,116.013c0,0.939,0.16,1.824,0.482,2.654
		c0.321,0.831,0.791,1.553,1.408,2.167s1.363,1.102,2.237,1.462c0.874,0.361,1.853,0.542,2.933,0.542s2.058-0.181,2.933-0.542
		c0.874-0.361,1.62-0.849,2.237-1.462s1.087-1.336,1.408-2.167s0.482-1.715,0.482-2.654s-0.161-1.824-0.482-2.654
		s-0.791-1.553-1.408-2.167c-0.617-0.614-1.363-1.101-2.237-1.462c-0.875-0.361-1.853-0.542-2.933-0.542s-2.059,0.18-2.933,0.542
		s-1.62,0.849-2.237,1.462c-0.617,0.614-1.087,1.336-1.408,2.167C369.939,114.189,369.779,115.074,369.779,116.013z"/>
	<path fill="#666666" d="M391.771,97.054h2.314v27.301h-2.314V97.054z"/>
	<path fill="#666666" d="M399.641,116.013c0-1.276,0.232-2.45,0.695-3.521s1.105-1.998,1.929-2.781
		c0.823-0.782,1.813-1.39,2.971-1.824c1.157-0.433,2.418-0.65,3.781-0.65s2.617,0.217,3.762,0.65
		c1.145,0.434,2.135,1.042,2.971,1.824c0.836,0.783,1.485,1.709,1.948,2.781s0.695,2.245,0.695,3.521
		c0,1.276-0.232,2.45-0.695,3.521s-1.112,1.999-1.948,2.78c-0.836,0.783-1.826,1.391-2.971,1.824
		c-1.145,0.434-2.398,0.65-3.762,0.65s-2.624-0.216-3.781-0.65c-1.157-0.433-2.147-1.041-2.971-1.824
		c-0.823-0.782-1.466-1.709-1.929-2.78S399.641,117.289,399.641,116.013z M401.956,116.013c0,0.939,0.16,1.824,0.482,2.654
		c0.321,0.831,0.791,1.553,1.408,2.167s1.363,1.102,2.237,1.462c0.874,0.361,1.853,0.542,2.933,0.542s2.058-0.181,2.933-0.542
		c0.874-0.361,1.62-0.849,2.237-1.462s1.087-1.336,1.408-2.167s0.482-1.715,0.482-2.654s-0.161-1.824-0.482-2.654
		s-0.791-1.553-1.408-2.167c-0.617-0.614-1.363-1.101-2.237-1.462c-0.875-0.361-1.853-0.542-2.933-0.542s-2.059,0.18-2.933,0.542
		s-1.62,0.849-2.237,1.462c-0.617,0.614-1.087,1.336-1.408,2.167C402.116,114.189,401.956,115.074,401.956,116.013z"/>
	<path fill="#666666" d="M441.465,123.271c0,2.07-0.322,3.743-0.965,5.02c-0.644,1.276-1.447,2.263-2.411,2.961
		c-0.965,0.698-2.001,1.167-3.106,1.408c-1.106,0.241-2.109,0.361-3.01,0.361s-1.781-0.079-2.643-0.235
		c-0.862-0.157-1.678-0.385-2.45-0.686c-0.771-0.301-1.473-0.668-2.103-1.102c-0.631-0.433-1.177-0.927-1.64-1.48l1.813-1.589
		c0.823,1.083,1.852,1.878,3.087,2.383c1.234,0.505,2.546,0.758,3.935,0.758c1.184,0,2.181-0.145,2.99-0.433
		c0.811-0.289,1.479-0.668,2.007-1.138c0.526-0.469,0.938-0.987,1.234-1.553c0.296-0.566,0.515-1.132,0.656-1.697
		c0.141-0.566,0.225-1.102,0.251-1.607c0.024-0.506,0.038-0.915,0.038-1.228v-2.311h-0.077c-0.669,1.011-1.576,1.806-2.72,2.383
		c-1.146,0.578-2.489,0.867-4.032,0.867c-1.312,0-2.546-0.222-3.704-0.668c-1.157-0.445-2.167-1.059-3.028-1.842
		c-0.862-0.782-1.543-1.691-2.045-2.727c-0.502-1.035-0.752-2.143-0.752-3.322c0-1.179,0.25-2.287,0.752-3.322
		s1.183-1.938,2.045-2.708c0.861-0.77,1.871-1.384,3.028-1.842c1.158-0.457,2.393-0.686,3.704-0.686
		c1.543,0,2.887,0.289,4.032,0.867c1.144,0.578,2.051,1.372,2.72,2.383h0.077v-2.817h2.315V123.271z M439.227,115.796
		c0-0.915-0.187-1.775-0.56-2.582c-0.373-0.806-0.875-1.504-1.505-2.095c-0.63-0.589-1.376-1.059-2.237-1.408
		c-0.862-0.349-1.781-0.523-2.759-0.523s-1.897,0.175-2.759,0.523c-0.862,0.349-1.607,0.819-2.237,1.408
		c-0.631,0.59-1.133,1.289-1.505,2.095c-0.373,0.807-0.56,1.667-0.56,2.582c0,0.915,0.187,1.776,0.56,2.582
		c0.372,0.807,0.874,1.505,1.505,2.095c0.63,0.59,1.375,1.06,2.237,1.408c0.861,0.349,1.781,0.523,2.759,0.523
		s1.896-0.174,2.759-0.523c0.861-0.349,1.607-0.818,2.237-1.408s1.132-1.288,1.505-2.095
		C439.04,117.572,439.227,116.711,439.227,115.796z"/>
	<path fill="#666666" d="M452.151,129.519c-0.438,1.083-1.042,1.938-1.813,2.564c-0.771,0.626-1.801,0.939-3.087,0.939
		c-0.386,0-0.771-0.03-1.157-0.09c-0.386-0.061-0.759-0.139-1.119-0.235l0.231-2.022c0.334,0.096,0.676,0.186,1.022,0.271
		c0.348,0.084,0.701,0.126,1.062,0.126c0.411,0,0.777-0.084,1.1-0.253c0.321-0.168,0.598-0.385,0.829-0.65
		c0.231-0.265,0.431-0.56,0.598-0.885c0.167-0.325,0.315-0.656,0.444-0.993l1.62-3.864l-7.253-16.756h2.585l5.902,14.048
		l5.749-14.048h2.47L452.151,129.519z"/>
</g>
</svg>
