<?xml version="1.0" encoding="utf-8"?>
<!-- Generator: Adobe Illustrator 16.0.0, SVG Export Plug-In . SVG Version: 6.00 Build 0)  -->
<!DOCTYPE svg PUBLIC "-//W3C//DTD SVG 1.1//EN" "http://www.w3.org/Graphics/SVG/1.1/DTD/svg11.dtd">
<svg version="1.1" id="Capa_1" xmlns="http://www.w3.org/2000/svg" xmlns:xlink="http://www.w3.org/1999/xlink" x="0px" y="0px"
	 width="476.977px" height="146.993px" viewBox="0 0 476.977 146.993" enable-background="new 0 0 476.977 146.993"
	 xml:space="preserve">
<text transform="matrix(1.0684 0 0 1 16.582 91.7803)" fill="#1E88E5" font-family="'Avenir-Heavy'" font-size="86.6694">THUNDE  </text>
<polyline fill="#F1CC0E" points="420.412,30.181 405.843,65.439 417.277,65.165 414.255,91.787 434.619,56.184 420.429,56.031 
	434.984,30.181 "/>
<g>
	<g>
		<defs>
			<rect id="SVGID_1_" x="-38.604" y="-82.328" width="584.986" height="332.892"/>
		</defs>
		<clipPath id="SVGID_2_">
			<use xlink:href="#SVGID_1_"  overflow="visible"/>
		</clipPath>
		<path clip-path="url(#SVGID_2_)" fill="#1E88E5" d="M437.679,30.247c0,0,21.173-0.704,21.702,16.776
			c0.53,17.48-15.254,17.374-15.254,17.374l17.373,27.39h-14.619l-14.568-25.888l-0.729-0.016l5.42-9.635
			c0,0,10.139,1.338,10.139-8.253c0,0,1.479-8.177-12.158-8.327l-2.602-0.006"/>
	</g>
	<g>
		<defs>
			<rect id="SVGID_3_" x="-38.604" y="-82.328" width="584.986" height="332.892"/>
		</defs>
		<clipPath id="SVGID_4_">
			<use xlink:href="#SVGID_3_"  overflow="visible"/>
		</clipPath>
		<polygon clip-path="url(#SVGID_4_)" fill="#1E88E5" points="417.016,91.781 423.643,91.787 423.643,80 		"/>
	</g>
</g>
<text transform="matrix(1.0684 0 0 1 264.5654 124.3545)" fill="#666666" font-family="'Avenir-Light'" font-size="36.1123" letter-spacing="-2.808">T</text>
<text transform="matrix(1.0684 0 0 1 282.4678 124.3545)" fill="#666666" font-family="'Avenir-Light'" font-size="36.1123">echnology</text>
</svg>
