<?xml version="1.0" encoding="utf-8"?>
<!-- Generator: Adobe Illustrator 16.0.0, SVG Export Plug-In . SVG Version: 6.00 Build 0)  -->
<!DOCTYPE svg PUBLIC "-//W3C//DTD SVG 1.1//EN" "http://www.w3.org/Graphics/SVG/1.1/DTD/svg11.dtd">
<svg version="1.1" id="Capa_1" xmlns="http://www.w3.org/2000/svg" xmlns:xlink="http://www.w3.org/1999/xlink" x="0px" y="0px"
	 width="427.139px" height="140px" viewBox="0 0 427.139 140" enable-background="new 0 0 427.139 140" xml:space="preserve">
<g>
	<defs>
		<rect id="SVGID_1_" y="-29" width="427.139" height="189"/>
	</defs>
	<clipPath id="SVGID_2_">
		<use xlink:href="#SVGID_1_"  overflow="visible"/>
	</clipPath>
</g>
<g>
	<defs>
		<rect id="SVGID_3_" y="-29" width="427.139" height="189"/>
	</defs>
	<clipPath id="SVGID_4_">
		<use xlink:href="#SVGID_3_"  overflow="visible"/>
	</clipPath>
	<polygon clip-path="url(#SVGID_4_)" points="98.439,57.208 98.439,63.035 81.953,63.035 81.953,106.133 75.259,106.133 
		75.259,63.035 58.772,63.035 58.772,57.208 	"/>
	<polygon clip-path="url(#SVGID_4_)" points="104.701,57.208 111.396,57.208 111.396,77.423 136.541,77.423 136.541,57.208 
		143.235,57.208 143.235,106.133 136.541,106.133 136.541,83.251 111.396,83.251 111.396,106.133 104.701,106.133 	"/>
	<path clip-path="url(#SVGID_4_)" d="M160.954,57.208v30.241c0,3.553,0.672,6.506,2.015,8.859c1.991,3.552,5.349,5.328,10.071,5.328
		c5.662,0,9.512-1.92,11.549-5.762c1.097-2.086,1.645-4.896,1.645-8.426V57.208h6.694v27.477c0,6.018-0.813,10.647-2.439,13.889
		c-2.986,5.907-8.623,8.859-16.911,8.859s-13.914-2.952-16.878-8.859c-1.626-3.241-2.439-7.871-2.439-13.889V57.208H160.954z"/>
	<path clip-path="url(#SVGID_4_)" d="M243.477,57.208h19.556c6.639,0,11.788,2.386,15.447,7.16
		c3.265,4.308,4.897,9.825,4.897,16.553c0,5.197-0.964,9.892-2.893,14.089c-3.397,7.416-9.235,11.124-17.518,11.124h-19.49V57.208z
		 M261.732,100.471c2.191,0,3.994-0.233,5.406-0.699c2.518-0.865,4.58-2.53,6.188-4.996c1.28-1.977,2.203-4.507,2.768-7.594
		c0.326-1.843,0.488-3.553,0.488-5.13c0-6.061-1.178-10.768-3.533-14.121c-2.355-3.353-6.149-5.029-11.382-5.029H250.17v37.569
		H261.732z"/>
	<polygon clip-path="url(#SVGID_4_)" points="293.069,57.208 328.573,57.208 328.573,63.202 299.53,63.202 299.53,78.056 
		326.374,78.056 326.374,83.718 299.53,83.718 299.53,100.304 329.072,100.304 329.072,106.133 293.069,106.133 	"/>
	<path clip-path="url(#SVGID_4_)" d="M338.731,57.208h22.238c3.664,0,6.684,0.544,9.06,1.632c4.514,2.087,6.771,5.939,6.771,11.557
		c0,2.931-0.604,5.33-1.815,7.194c-1.21,1.864-2.904,3.363-5.08,4.496c1.91,0.777,3.348,1.798,4.314,3.064
		c0.965,1.266,1.503,3.319,1.615,6.161l0.233,6.561c0.066,1.866,0.221,3.254,0.466,4.164c0.399,1.555,1.11,2.554,2.131,2.997v1.1
		h-8.126c-0.223-0.422-0.399-0.966-0.533-1.632c-0.133-0.667-0.244-1.954-0.333-3.864l-0.398-8.159
		c-0.152-3.198-1.306-5.34-3.464-6.429c-1.229-0.599-3.161-0.898-5.791-0.898h-14.66v20.982h-6.627V57.208z M360.258,79.622
		c3.021,0,5.414-0.622,7.175-1.865c1.759-1.243,2.638-3.485,2.638-6.729c0-3.485-1.229-5.861-3.69-7.127
		c-1.318-0.666-3.077-0.999-5.279-0.999h-15.742v16.72H360.258z"/>
</g>
<text transform="matrix(1 0 0 1 241.0273 124.1021)"><tspan x="0" y="0" fill="#808080" font-family="'Helvetica'" font-size="14.7942">TECHNOLOG</tspan><tspan x="93.706" y="0" fill="#808080" font-family="'Helvetica'" font-size="14.7942">Y</tspan><tspan x="103.322" y="0" fill="#808080" font-family="'Helvetica'" font-size="14.7942"> INC.</tspan></text>
<g>
	<defs>
		<rect id="SVGID_5_" y="-29" width="427.139" height="189"/>
	</defs>
	<clipPath id="SVGID_6_">
		<use xlink:href="#SVGID_5_"  overflow="visible"/>
	</clipPath>
	<g clip-path="url(#SVGID_6_)">
		<defs>
			<rect id="SVGID_7_" x="200.267" y="9.353" width="36.606" height="114.749"/>
		</defs>
		<clipPath id="SVGID_8_">
			<use xlink:href="#SVGID_7_"  overflow="visible"/>
		</clipPath>
		<g clip-path="url(#SVGID_8_)">
			<defs>
				<rect id="SVGID_9_" x="200.267" y="9.353" width="36.606" height="114.749"/>
			</defs>
			<clipPath id="SVGID_10_">
				<use xlink:href="#SVGID_9_"  overflow="visible"/>
			</clipPath>
			<g clip-path="url(#SVGID_10_)">
				<defs>
					<path id="SVGID_11_" d="M230.64,95.474c3.993,0.761,7.245-3.688,5.94-8.128l-0.069-0.234c0.172,7.144-6.829,3.402-6.829,3.402
						L201.141,70.39l0.409,4.35h0.001L230.64,95.474z"/>
				</defs>
				<clipPath id="SVGID_12_">
					<use xlink:href="#SVGID_11_"  overflow="visible"/>
				</clipPath>
				
					<linearGradient id="SVGID_13_" gradientUnits="userSpaceOnUse" x1="-10.2104" y1="589.2314" x2="-9.2104" y2="589.2314" gradientTransform="matrix(35.7317 0 0 -35.7317 566 21137.5488)">
					<stop  offset="0" style="stop-color:#33A1E2"/>
					<stop  offset="0.1247" style="stop-color:#3197D9"/>
					<stop  offset="0.336" style="stop-color:#2D7CC1"/>
					<stop  offset="0.608" style="stop-color:#25519B"/>
					<stop  offset="0.9274" style="stop-color:#1B1665"/>
					<stop  offset="0.9355" style="stop-color:#1B1464"/>
					<stop  offset="1" style="stop-color:#1B1464"/>
				</linearGradient>
				<rect x="201.141" y="70.39" clip-path="url(#SVGID_12_)" fill="url(#SVGID_13_)" width="36.744" height="25.845"/>
			</g>
			<g clip-path="url(#SVGID_10_)">
				<defs>
					<path id="SVGID_14_" d="M236.511,87.112L236.511,87.112l-1.242-4.229c-0.608,7.05-7.288,2.427-7.317,2.41l-27.232-19.389
						l0.422,4.486l28.541,20.124C229.682,90.514,236.683,94.255,236.511,87.112"/>
				</defs>
				<clipPath id="SVGID_15_">
					<use xlink:href="#SVGID_14_"  overflow="visible"/>
				</clipPath>
				
					<linearGradient id="SVGID_16_" gradientUnits="userSpaceOnUse" x1="-10.1934" y1="589.1895" x2="-9.1929" y2="589.1895" gradientTransform="matrix(35.7958 0 0 -35.7958 565.5938 21170.625)">
					<stop  offset="0" style="stop-color:#33A1E2"/>
					<stop  offset="0.1247" style="stop-color:#3197D9"/>
					<stop  offset="0.336" style="stop-color:#2D7CC1"/>
					<stop  offset="0.608" style="stop-color:#25519B"/>
					<stop  offset="0.9274" style="stop-color:#1B1665"/>
					<stop  offset="0.9355" style="stop-color:#1B1464"/>
					<stop  offset="1" style="stop-color:#1B1464"/>
				</linearGradient>
				<rect x="200.719" y="65.904" clip-path="url(#SVGID_15_)" fill="url(#SVGID_16_)" width="35.964" height="28.352"/>
			</g>
			<g clip-path="url(#SVGID_10_)">
				<defs>
					<path id="SVGID_17_" d="M235.269,82.882L235.269,82.882l-1.915-6.521h-0.001l-0.08,0.032c1.061,7.181-5.397,3.954-5.397,3.954
						l-27.6-19.144l0.443,4.699l27.232,19.389C227.98,85.309,234.66,89.932,235.269,82.882"/>
				</defs>
				<clipPath id="SVGID_18_">
					<use xlink:href="#SVGID_17_"  overflow="visible"/>
				</clipPath>
				
					<linearGradient id="SVGID_19_" gradientUnits="userSpaceOnUse" x1="-10.4263" y1="589.3262" x2="-9.4263" y2="589.3262" gradientTransform="matrix(34.9931 0 0 -34.9931 565.125 20697.9395)">
					<stop  offset="0" style="stop-color:#33A1E2"/>
					<stop  offset="0.1247" style="stop-color:#3197D9"/>
					<stop  offset="0.336" style="stop-color:#2D7CC1"/>
					<stop  offset="0.608" style="stop-color:#25519B"/>
					<stop  offset="0.9274" style="stop-color:#1B1665"/>
					<stop  offset="0.9355" style="stop-color:#1B1464"/>
					<stop  offset="1" style="stop-color:#1B1464"/>
				</linearGradient>
				<rect x="200.275" y="61.205" clip-path="url(#SVGID_18_)" fill="url(#SVGID_19_)" width="34.993" height="28.728"/>
			</g>
			<g clip-path="url(#SVGID_10_)">
				<defs>
					<path id="SVGID_20_" d="M226.736,74.276l-6.107-19.475l2.063,13.481l-20.322-8.955c-1.085-0.478-2.221,0.541-2.095,1.877
						l27.6,19.144c0,0,6.458,3.227,5.397-3.954l0.08-0.032l-2.421-8.243C231.969,77.255,226.736,74.276,226.736,74.276"/>
				</defs>
				<clipPath id="SVGID_21_">
					<use xlink:href="#SVGID_20_"  overflow="visible"/>
				</clipPath>
				
					<linearGradient id="SVGID_22_" gradientUnits="userSpaceOnUse" x1="-11.0151" y1="589.6934" x2="-10.0151" y2="589.6934" gradientTransform="matrix(33.1236 0 0 -33.1236 565.125 19601.9414)">
					<stop  offset="0" style="stop-color:#33A1E2"/>
					<stop  offset="0.1247" style="stop-color:#3197D9"/>
					<stop  offset="0.336" style="stop-color:#2D7CC1"/>
					<stop  offset="0.608" style="stop-color:#25519B"/>
					<stop  offset="0.9274" style="stop-color:#1B1665"/>
					<stop  offset="0.9355" style="stop-color:#1B1464"/>
					<stop  offset="1" style="stop-color:#1B1464"/>
				</linearGradient>
				<rect x="200.149" y="54.801" clip-path="url(#SVGID_21_)" fill="url(#SVGID_22_)" width="34.184" height="28.773"/>
			</g>
			<g clip-path="url(#SVGID_10_)">
				<defs>
					<path id="SVGID_23_" d="M218.441,40.52l2.188,14.281l6.107,19.475c0,0,5.232,2.979,4.195-6.157l-8.722-29.691L216,24.572
						L218.441,40.52z"/>
				</defs>
				<clipPath id="SVGID_24_">
					<use xlink:href="#SVGID_23_"  overflow="visible"/>
				</clipPath>
				
					<linearGradient id="SVGID_25_" gradientUnits="userSpaceOnUse" x1="-24.2144" y1="597.7148" x2="-23.2144" y2="597.7148" gradientTransform="matrix(15.068 0 0 -15.068 580.8594 9057.2764)">
					<stop  offset="0" style="stop-color:#33A1E2"/>
					<stop  offset="0.1247" style="stop-color:#3197D9"/>
					<stop  offset="0.336" style="stop-color:#2D7CC1"/>
					<stop  offset="0.608" style="stop-color:#25519B"/>
					<stop  offset="0.9274" style="stop-color:#1B1665"/>
					<stop  offset="0.9355" style="stop-color:#1B1464"/>
					<stop  offset="1" style="stop-color:#1B1464"/>
				</linearGradient>
				<rect x="216" y="24.572" clip-path="url(#SVGID_24_)" fill="url(#SVGID_25_)" width="15.969" height="52.683"/>
			</g>
			<g clip-path="url(#SVGID_10_)">
				<defs>
					<polygon id="SVGID_26_" points="230.64,95.474 201.551,74.74 201.992,79.427 223.06,94.029 					"/>
				</defs>
				<clipPath id="SVGID_27_">
					<use xlink:href="#SVGID_26_"  overflow="visible"/>
				</clipPath>
				
					<linearGradient id="SVGID_28_" gradientUnits="userSpaceOnUse" x1="-12.543" y1="590.666" x2="-11.543" y2="590.666" gradientTransform="matrix(29.0894 0 0 -29.0894 566.4062 17267.209)">
					<stop  offset="0" style="stop-color:#33A1E2"/>
					<stop  offset="0.1247" style="stop-color:#3197D9"/>
					<stop  offset="0.336" style="stop-color:#2D7CC1"/>
					<stop  offset="0.608" style="stop-color:#25519B"/>
					<stop  offset="0.9274" style="stop-color:#1B1665"/>
					<stop  offset="0.9355" style="stop-color:#1B1464"/>
					<stop  offset="1" style="stop-color:#1B1464"/>
				</linearGradient>
				<rect x="201.551" y="74.74" clip-path="url(#SVGID_27_)" fill="url(#SVGID_28_)" width="29.089" height="20.734"/>
			</g>
			<g clip-path="url(#SVGID_10_)">
				<defs>
					<polygon id="SVGID_29_" points="222.21,38.427 213.67,9.353 216,24.572 					"/>
				</defs>
				<clipPath id="SVGID_30_">
					<use xlink:href="#SVGID_29_"  overflow="visible"/>
				</clipPath>
				
					<linearGradient id="SVGID_31_" gradientUnits="userSpaceOnUse" x1="-42.7217" y1="609.1084" x2="-41.7217" y2="609.1084" gradientTransform="matrix(8.5403 0 0 -8.5403 578.5312 5225.8472)">
					<stop  offset="0" style="stop-color:#33A1E2"/>
					<stop  offset="0.1247" style="stop-color:#3197D9"/>
					<stop  offset="0.336" style="stop-color:#2D7CC1"/>
					<stop  offset="0.608" style="stop-color:#25519B"/>
					<stop  offset="0.9274" style="stop-color:#1B1665"/>
					<stop  offset="0.9355" style="stop-color:#1B1464"/>
					<stop  offset="1" style="stop-color:#1B1464"/>
				</linearGradient>
				<rect x="213.67" y="9.353" clip-path="url(#SVGID_30_)" fill="url(#SVGID_31_)" width="8.54" height="29.074"/>
			</g>
			<g clip-path="url(#SVGID_10_)">
				<defs>
					<polygon id="SVGID_32_" points="223.06,94.029 201.992,79.427 202.526,85.107 205.29,86.796 209.992,89.67 214.433,92.384 
											"/>
				</defs>
				<clipPath id="SVGID_33_">
					<use xlink:href="#SVGID_32_"  overflow="visible"/>
				</clipPath>
				
					<linearGradient id="SVGID_34_" gradientUnits="userSpaceOnUse" x1="-17.3193" y1="593.584" x2="-16.3193" y2="593.584" gradientTransform="matrix(21.0675 0 0 -21.0675 566.8594 12592.0752)">
					<stop  offset="0" style="stop-color:#33A1E2"/>
					<stop  offset="0.1247" style="stop-color:#3197D9"/>
					<stop  offset="0.336" style="stop-color:#2D7CC1"/>
					<stop  offset="0.608" style="stop-color:#25519B"/>
					<stop  offset="0.9274" style="stop-color:#1B1665"/>
					<stop  offset="0.9355" style="stop-color:#1B1464"/>
					<stop  offset="1" style="stop-color:#1B1464"/>
				</linearGradient>
				<rect x="201.992" y="79.427" clip-path="url(#SVGID_33_)" fill="url(#SVGID_34_)" width="21.067" height="14.602"/>
			</g>
			<g clip-path="url(#SVGID_10_)">
				<defs>
					<polygon id="SVGID_35_" points="206.197,124.102 214.433,92.384 209.992,89.67 					"/>
				</defs>
				<clipPath id="SVGID_36_">
					<use xlink:href="#SVGID_35_"  overflow="visible"/>
				</clipPath>
				
					<linearGradient id="SVGID_37_" gradientUnits="userSpaceOnUse" x1="-44.3066" y1="610.0781" x2="-43.3066" y2="610.0781" gradientTransform="matrix(8.2349 0 0 -8.2349 571.0586 5130.8311)">
					<stop  offset="0" style="stop-color:#1B1464"/>
					<stop  offset="1" style="stop-color:#33A1E2"/>
				</linearGradient>
				<rect x="206.197" y="89.67" clip-path="url(#SVGID_36_)" fill="url(#SVGID_37_)" width="8.235" height="34.432"/>
			</g>
			<g clip-path="url(#SVGID_10_)">
				<defs>
					<polygon id="SVGID_38_" points="206.197,124.102 209.992,89.67 205.29,86.796 					"/>
				</defs>
				<clipPath id="SVGID_39_">
					<use xlink:href="#SVGID_38_"  overflow="visible"/>
				</clipPath>
				
					<linearGradient id="SVGID_40_" gradientUnits="userSpaceOnUse" x1="-77.5791" y1="630.4111" x2="-76.5796" y2="630.4111" gradientTransform="matrix(4.7031 0 0 -4.7031 570.1523 3070.3298)">
					<stop  offset="0" style="stop-color:#1B1464"/>
					<stop  offset="1" style="stop-color:#33A1E2"/>
				</linearGradient>
				<rect x="205.29" y="86.796" clip-path="url(#SVGID_39_)" fill="url(#SVGID_40_)" width="4.702" height="37.306"/>
			</g>
			<g clip-path="url(#SVGID_10_)">
				<defs>
					<polygon id="SVGID_41_" points="206.197,124.102 205.29,86.796 202.526,85.107 					"/>
				</defs>
				<clipPath id="SVGID_42_">
					<use xlink:href="#SVGID_41_"  overflow="visible"/>
				</clipPath>
				
					<linearGradient id="SVGID_43_" gradientUnits="userSpaceOnUse" x1="-99.3896" y1="643.7402" x2="-98.3896" y2="643.7402" gradientTransform="matrix(3.671 0 0 -3.671 567.3867 2467.7864)">
					<stop  offset="0" style="stop-color:#1B1464"/>
					<stop  offset="1" style="stop-color:#33A1E2"/>
				</linearGradient>
				<rect x="202.526" y="85.107" clip-path="url(#SVGID_42_)" fill="url(#SVGID_43_)" width="3.671" height="38.995"/>
			</g>
		</g>
	</g>
	
		<path clip-path="url(#SVGID_6_)" fill="none" stroke="#DAD8D3" stroke-width="0.039" stroke-linecap="round" stroke-linejoin="round" stroke-miterlimit="10" d="
		M236.511,87.112l0.069,0.234c1.305,4.44-1.947,8.889-5.94,8.128l-7.58-1.445l-8.627-1.645l-8.235,31.718l-3.671-38.995l-0.536-5.68
		l-0.439-4.688"/>
	
		<line clip-path="url(#SVGID_6_)" fill="none" stroke="#DAD8D3" stroke-width="0.039" stroke-linecap="round" stroke-linejoin="round" stroke-miterlimit="10" x1="235.269" y1="82.882" x2="236.511" y2="87.112"/>
	
		<path clip-path="url(#SVGID_6_)" fill="none" stroke="#DAD8D3" stroke-width="0.039" stroke-linecap="round" stroke-linejoin="round" stroke-miterlimit="10" d="
		M201.55,74.74l-0.409-4.35l-0.422-4.486l-0.443-4.699c-0.126-1.336,1.011-2.354,2.095-1.877l20.322,8.955l-2.063-13.481
		l-2.188-14.282L216,24.573l-2.33-15.22l8.54,29.074l8.722,29.692l2.421,8.243h0.001l1.915,6.52"/>
	
		<path clip-path="url(#SVGID_6_)" fill="none" stroke="#DAD8D3" stroke-width="0.039" stroke-linecap="round" stroke-linejoin="round" stroke-miterlimit="10" d="
		M206.587,61.697l20.149,12.579c0,0,5.232,2.979,4.195-6.157v-0.002"/>
	
		<polyline clip-path="url(#SVGID_6_)" fill="none" stroke="#DAD8D3" stroke-width="0.039" stroke-linecap="round" stroke-linejoin="round" stroke-miterlimit="10" points="
		226.736,74.276 220.629,54.801 219.381,50.824 	"/>
	
		<line clip-path="url(#SVGID_6_)" fill="none" stroke="#DAD8D3" stroke-width="0.039" stroke-linecap="round" stroke-linejoin="round" stroke-miterlimit="10" x1="230.185" y1="72.856" x2="218.441" y2="40.52"/>
	
		<line clip-path="url(#SVGID_6_)" fill="none" stroke="#DAD8D3" stroke-width="0.039" stroke-linecap="round" stroke-linejoin="round" stroke-miterlimit="10" x1="222.21" y1="38.427" x2="216" y2="24.572"/>
	
		<path clip-path="url(#SVGID_6_)" fill="none" stroke="#DAD8D3" stroke-width="0.039" stroke-linecap="round" stroke-linejoin="round" stroke-miterlimit="10" d="
		M201.14,70.389L201.14,70.389l28.542,20.125c0,0,7.001,3.741,6.829-3.402v-0.001"/>
	
		<path clip-path="url(#SVGID_6_)" fill="none" stroke="#DAD8D3" stroke-width="0.039" stroke-linecap="round" stroke-linejoin="round" stroke-miterlimit="10" d="
		M200.719,65.904l27.23,19.389c0.031,0.017,6.712,4.64,7.319-2.409v-0.002"/>
	
		<path clip-path="url(#SVGID_6_)" fill="none" stroke="#DAD8D3" stroke-width="0.039" stroke-linecap="round" stroke-linejoin="round" stroke-miterlimit="10" d="
		M200.275,61.205l27.6,19.144c0,0,6.458,3.227,5.397-3.954"/>
	
		<polyline clip-path="url(#SVGID_6_)" fill="none" stroke="#DAD8D3" stroke-width="0.039" stroke-linecap="round" stroke-linejoin="round" stroke-miterlimit="10" points="
		230.64,95.474 201.551,74.74 201.55,74.74 	"/>
	
		<line clip-path="url(#SVGID_6_)" fill="none" stroke="#DAD8D3" stroke-width="0.039" stroke-linecap="round" stroke-linejoin="round" stroke-miterlimit="10" x1="223.06" y1="94.029" x2="201.991" y2="79.427"/>
	
		<polyline clip-path="url(#SVGID_6_)" fill="none" stroke="#DAD8D3" stroke-width="0.039" stroke-linecap="round" stroke-linejoin="round" stroke-miterlimit="10" points="
		214.433,92.384 209.993,89.67 205.289,86.796 202.526,85.107 	"/>
	
		<polyline clip-path="url(#SVGID_6_)" fill="none" stroke="#DAD8D3" stroke-width="0.039" stroke-linecap="round" stroke-linejoin="round" stroke-miterlimit="10" points="
		209.993,89.67 206.197,124.102 205.29,86.796 	"/>
</g>
</svg>
