<?xml version="1.0" encoding="utf-8"?>
<!-- Generator: Adobe Illustrator 16.0.0, SVG Export Plug-In . SVG Version: 6.00 Build 0)  -->
<!DOCTYPE svg PUBLIC "-//W3C//DTD SVG 1.1//EN" "http://www.w3.org/Graphics/SVG/1.1/DTD/svg11.dtd">
<svg version="1.1" xmlns="http://www.w3.org/2000/svg" xmlns:xlink="http://www.w3.org/1999/xlink" x="0px" y="0px" width="1000px"
	 height="800px" viewBox="0 0 1000 800" enable-background="new 0 0 1000 800" xml:space="preserve">
<g id="background">
	<path fill="none" stroke="#F1F2F2" stroke-width="1.92" stroke-linecap="round" stroke-miterlimit="10" d="M255.421,233.745
		h-31.604c-2.564-2.269-5.905-3.578-9.44-3.578c-0.002,0-0.202,0.013-0.301,0.015l-3.067,0.063l0.477-3.031
		c0.218-1.383,0.328-2.788,0.328-4.175c0-14.669-11.935-26.603-26.604-26.603c-10.232,0-19.675,5.981-24.057,15.238l-1.17,2.473
		l-2.394-1.323c-3.15-1.742-6.727-2.663-10.342-2.663c-10.602,0-19.712,7.904-21.192,18.387l-0.462,3.271l-3.056-1.253
		c-1.682-0.69-3.452-1.04-5.261-1.04c-3.776,0-7.355,1.576-9.931,4.22H37.823"/>
	
		<line fill="none" stroke="#F1F2F2" stroke-width="1.92" stroke-linecap="round" stroke-miterlimit="10" x1="67.621" y1="241.168" x2="145.837" y2="241.168"/>
	
		<line fill="none" stroke="#F1F2F2" stroke-width="1.92" stroke-linecap="round" stroke-miterlimit="10" x1="165.763" y1="251.099" x2="199.215" y2="251.099"/>
	<path fill="none" stroke="#F1F2F2" stroke-width="1.92" stroke-linecap="round" stroke-miterlimit="10" d="M952.553,211.994
		h-56.374c-0.302-6.846-5.932-12.307-12.852-12.307c-3.65,0-6.938,1.525-9.282,3.964c-2.973-5.51-8.796-9.256-15.496-9.256
		c-0.836,0-1.652,0.079-2.457,0.191c-2.028-14.905-14.799-26.394-30.26-26.394c-2.267,0-4.474,0.255-6.601,0.724
		c-4.635-8.461-13.619-14.2-23.947-14.2c-11.908,0-22.008,7.641-25.735,18.277c-2.654-1.108-5.566-1.725-8.623-1.725
		c-12.382,0-22.419,10.037-22.419,22.418c0,1.292,0.133,2.55,0.343,3.782c-0.496-0.039-0.995-0.076-1.502-0.076
		c-8.92,0-16.368,6.247-18.244,14.601H650.63"/>
	
		<line fill="none" stroke="#F1F2F2" stroke-width="1.92" stroke-linecap="round" stroke-miterlimit="10" x1="706.354" y1="225.18" x2="785.753" y2="225.18"/>
	
		<line fill="none" stroke="#F1F2F2" stroke-width="1.92" stroke-linecap="round" stroke-miterlimit="10" x1="762.953" y1="235.44" x2="774.154" y2="235.44"/>
	
		<line fill="none" stroke="#F1F2F2" stroke-width="1.92" stroke-linecap="round" stroke-miterlimit="10" x1="834.953" y1="235.44" x2="916.553" y2="235.44"/>
	<path opacity="0.1" d="M889.327,630.727c0,8.134-114.192,39.273-391.512,39.273c-277.32,0-391.512-31.14-391.512-39.273
		C106.303,622.592,889.327,622.592,889.327,630.727z"/>
	<path fill="none" stroke="#F1F2F2" stroke-width="1.92" stroke-linecap="round" stroke-miterlimit="10" d="M455.379,163.368H385.31
		c-2.042-3.724-5.997-6.25-10.543-6.252c1.679-2.652,2.654-5.793,2.654-9.164c0-9.478-7.683-17.161-17.161-17.161
		c-5.806,0-10.935,2.886-14.04,7.299c-0.522-0.347-1.06-0.677-1.621-0.982c-10.134-5.503-22.81-1.749-28.312,8.385
		c-2.05,3.776-2.814,7.904-2.443,11.883h-0.092c-4.398,0-8.227,2.417-10.246,5.992h-37.675"/>
	
		<line fill="none" stroke="#F1F2F2" stroke-width="1.92" stroke-linecap="round" stroke-miterlimit="10" x1="287.431" y1="178.643" x2="360.604" y2="178.643"/>
</g>
<g id="content">
	<g>
		<path fill="#F1F2F2" d="M360.541,525.642h25.8v45.324h-25.8v53.864h-58.747v-53.864h-98.145l-3.486-35.911l101.631-163.516v-0.523
			h58.747V525.642z M256.121,525.642h45.673v-78.097l-3.661,5.927L256.121,525.642z"/>
		<path fill="#F1F2F2" d="M588.382,521.109c0,34.284-7.7,60.725-23.099,79.315c-15.399,18.597-37.103,27.892-65.109,27.892
			c-28.24,0-50.091-9.353-65.546-28.064c-15.458-18.71-23.185-45.091-23.185-79.143v-46.37c0-34.283,7.697-60.723,23.098-79.318
			c15.397-18.592,37.158-27.892,65.284-27.892c28.124,0,49.915,9.356,65.372,28.066c15.454,18.713,23.185,45.149,23.185,79.317
			V521.109z M529.635,467.242c0-18.243-2.383-31.871-7.146-40.879c-4.768-9.004-12.32-13.51-22.663-13.51
			c-10.111,0-17.462,4.184-22.052,12.551c-4.592,8.368-7.06,21.037-7.408,38.002v64.849c0,18.945,2.38,32.804,7.147,41.577
			c4.764,8.776,12.317,13.161,22.662,13.161c9.994,0,17.373-4.271,22.139-12.812c4.764-8.542,7.204-21.935,7.321-40.183V467.242z"/>
		<path fill="#F1F2F2" d="M774.037,525.642h25.8v45.324h-25.8v53.864H715.29v-53.864h-98.145l-3.486-35.911L715.29,371.539v-0.523
			h58.747V525.642z M669.617,525.642h45.673v-78.097l-3.661,5.927L669.617,525.642z"/>
	</g>
</g>
</svg>
