<?xml version="1.0" encoding="utf-8"?>
<!-- Generator: Adobe Illustrator 16.0.0, SVG Export Plug-In . SVG Version: 6.00 Build 0)  -->
<!DOCTYPE svg PUBLIC "-//W3C//DTD SVG 1.1//EN" "http://www.w3.org/Graphics/SVG/1.1/DTD/svg11.dtd">
<svg version="1.1" id="Capa_1" xmlns="http://www.w3.org/2000/svg" xmlns:xlink="http://www.w3.org/1999/xlink" x="0px" y="0px"
	 width="164.5px" height="164.596px" viewBox="0 0 164.5 164.596" enable-background="new 0 0 164.5 164.596" xml:space="preserve">
<g>
	<defs>
		<rect id="SVGID_1_" x="63.428" y="25.683" width="36.496" height="114.749"/>
	</defs>
	<clipPath id="SVGID_2_">
		<use xlink:href="#SVGID_1_"  overflow="visible"/>
	</clipPath>
	<g clip-path="url(#SVGID_2_)">
		<defs>
			<rect id="SVGID_3_" x="63.428" y="25.683" width="36.496" height="114.749"/>
		</defs>
		<clipPath id="SVGID_4_">
			<use xlink:href="#SVGID_3_"  overflow="visible"/>
		</clipPath>
		<g clip-path="url(#SVGID_4_)">
			<defs>
				<path id="SVGID_5_" d="M93.709,111.804c3.981,0.761,7.223-3.688,5.922-8.128l-0.069-0.234c0.171,7.144-6.809,3.402-6.809,3.402
					L64.3,86.72l0.408,4.35h0.001L93.709,111.804z"/>
			</defs>
			<clipPath id="SVGID_6_">
				<use xlink:href="#SVGID_5_"  overflow="visible"/>
			</clipPath>
			
				<linearGradient id="SVGID_7_" gradientUnits="userSpaceOnUse" x1="68.5811" y1="592.8867" x2="69.5777" y2="592.8867" gradientTransform="matrix(35.7317 0 0 -35.7317 -2386.1875 21284.4688)">
				<stop  offset="0" style="stop-color:#33A1E2"/>
				<stop  offset="0.1247" style="stop-color:#3197D9"/>
				<stop  offset="0.336" style="stop-color:#2D7CC1"/>
				<stop  offset="0.608" style="stop-color:#25519B"/>
				<stop  offset="0.9274" style="stop-color:#1B1665"/>
				<stop  offset="0.9355" style="stop-color:#1B1464"/>
				<stop  offset="1" style="stop-color:#1B1464"/>
			</linearGradient>
			<rect x="64.3" y="86.72" clip-path="url(#SVGID_6_)" fill="url(#SVGID_7_)" width="36.633" height="25.845"/>
		</g>
		<g clip-path="url(#SVGID_4_)">
			<defs>
				<path id="SVGID_8_" d="M99.563,103.442L99.563,103.442l-1.239-4.229c-0.606,7.05-7.266,2.427-7.295,2.41l-27.15-19.389
					l0.42,4.486l28.455,20.124C92.754,106.844,99.734,110.585,99.563,103.442"/>
			</defs>
			<clipPath id="SVGID_9_">
				<use xlink:href="#SVGID_8_"  overflow="visible"/>
			</clipPath>
			
				<linearGradient id="SVGID_10_" gradientUnits="userSpaceOnUse" x1="68.6094" y1="592.8457" x2="69.6065" y2="592.8457" gradientTransform="matrix(35.7958 0 0 -35.7958 -2392.0625 21317.8125)">
				<stop  offset="0" style="stop-color:#33A1E2"/>
				<stop  offset="0.1247" style="stop-color:#3197D9"/>
				<stop  offset="0.336" style="stop-color:#2D7CC1"/>
				<stop  offset="0.608" style="stop-color:#25519B"/>
				<stop  offset="0.9274" style="stop-color:#1B1665"/>
				<stop  offset="0.9355" style="stop-color:#1B1464"/>
				<stop  offset="1" style="stop-color:#1B1464"/>
			</linearGradient>
			<rect x="63.879" y="82.234" clip-path="url(#SVGID_9_)" fill="url(#SVGID_10_)" width="35.854" height="28.352"/>
		</g>
		<g clip-path="url(#SVGID_4_)">
			<defs>
				<path id="SVGID_11_" d="M98.324,99.212L98.324,99.212l-1.909-6.521h-0.001l-0.08,0.032c1.057,7.181-5.381,3.954-5.381,3.954
					L63.437,77.535l0.442,4.699l27.15,19.389C91.059,101.639,97.718,106.262,98.324,99.212"/>
			</defs>
			<clipPath id="SVGID_12_">
				<use xlink:href="#SVGID_11_"  overflow="visible"/>
			</clipPath>
			
				<linearGradient id="SVGID_13_" gradientUnits="userSpaceOnUse" x1="68.2339" y1="592.9727" x2="69.231" y2="592.9727" gradientTransform="matrix(34.9931 0 0 -34.9931 -2324.3125 20841.9062)">
				<stop  offset="0" style="stop-color:#33A1E2"/>
				<stop  offset="0.1247" style="stop-color:#3197D9"/>
				<stop  offset="0.336" style="stop-color:#2D7CC1"/>
				<stop  offset="0.608" style="stop-color:#25519B"/>
				<stop  offset="0.9274" style="stop-color:#1B1665"/>
				<stop  offset="0.9355" style="stop-color:#1B1464"/>
				<stop  offset="1" style="stop-color:#1B1464"/>
			</linearGradient>
			<rect x="63.437" y="77.535" clip-path="url(#SVGID_12_)" fill="url(#SVGID_13_)" width="34.887" height="28.728"/>
		</g>
		<g clip-path="url(#SVGID_4_)">
			<defs>
				<path id="SVGID_14_" d="M89.818,90.606l-6.089-19.475l2.057,13.481l-20.261-8.955c-1.082-0.478-2.214,0.541-2.088,1.877
					l27.516,19.144c0,0,6.438,3.227,5.381-3.954l0.08-0.032L94,84.449C95.035,93.585,89.818,90.606,89.818,90.606"/>
			</defs>
			<clipPath id="SVGID_15_">
				<use xlink:href="#SVGID_14_"  overflow="visible"/>
			</clipPath>
			
				<linearGradient id="SVGID_16_" gradientUnits="userSpaceOnUse" x1="67.2876" y1="593.3213" x2="68.2848" y2="593.3213" gradientTransform="matrix(33.1236 0 0 -33.1236 -2165.3906 19738.4375)">
				<stop  offset="0" style="stop-color:#33A1E2"/>
				<stop  offset="0.1247" style="stop-color:#3197D9"/>
				<stop  offset="0.336" style="stop-color:#2D7CC1"/>
				<stop  offset="0.608" style="stop-color:#25519B"/>
				<stop  offset="0.9274" style="stop-color:#1B1665"/>
				<stop  offset="0.9355" style="stop-color:#1B1464"/>
				<stop  offset="1" style="stop-color:#1B1464"/>
			</linearGradient>
			<rect x="63.312" y="71.131" clip-path="url(#SVGID_15_)" fill="url(#SVGID_16_)" width="34.08" height="28.773"/>
		</g>
		<g clip-path="url(#SVGID_4_)">
			<defs>
				<path id="SVGID_17_" d="M81.548,56.85l2.181,14.281l6.089,19.475c0,0,5.217,2.979,4.183-6.157l-8.695-29.691l-6.191-13.855
					L81.548,56.85z"/>
			</defs>
			<clipPath id="SVGID_18_">
				<use xlink:href="#SVGID_17_"  overflow="visible"/>
			</clipPath>
			
				<linearGradient id="SVGID_19_" gradientUnits="userSpaceOnUse" x1="46.0601" y1="600.8965" x2="47.0568" y2="600.8965" gradientTransform="matrix(15.068 0 0 -15.068 -614.9219 9121.5469)">
				<stop  offset="0" style="stop-color:#33A1E2"/>
				<stop  offset="0.1247" style="stop-color:#3197D9"/>
				<stop  offset="0.336" style="stop-color:#2D7CC1"/>
				<stop  offset="0.608" style="stop-color:#25519B"/>
				<stop  offset="0.9274" style="stop-color:#1B1665"/>
				<stop  offset="0.9355" style="stop-color:#1B1464"/>
				<stop  offset="1" style="stop-color:#1B1464"/>
			</linearGradient>
			<rect x="79.114" y="40.902" clip-path="url(#SVGID_18_)" fill="url(#SVGID_19_)" width="15.92" height="52.683"/>
		</g>
		<g clip-path="url(#SVGID_4_)">
			<defs>
				<polygon id="SVGID_20_" points="93.709,111.804 64.709,91.07 65.149,95.757 86.152,110.359 				"/>
			</defs>
			<clipPath id="SVGID_21_">
				<use xlink:href="#SVGID_20_"  overflow="visible"/>
			</clipPath>
			
				<linearGradient id="SVGID_22_" gradientUnits="userSpaceOnUse" x1="64.8306" y1="594.2422" x2="65.8276" y2="594.2422" gradientTransform="matrix(29.0894 0 0 -29.0894 -1821.1875 17387.5781)">
				<stop  offset="0" style="stop-color:#33A1E2"/>
				<stop  offset="0.1247" style="stop-color:#3197D9"/>
				<stop  offset="0.336" style="stop-color:#2D7CC1"/>
				<stop  offset="0.608" style="stop-color:#25519B"/>
				<stop  offset="0.9274" style="stop-color:#1B1665"/>
				<stop  offset="0.9355" style="stop-color:#1B1464"/>
				<stop  offset="1" style="stop-color:#1B1464"/>
			</linearGradient>
			<rect x="64.709" y="91.07" clip-path="url(#SVGID_21_)" fill="url(#SVGID_22_)" width="29" height="20.734"/>
		</g>
		<g clip-path="url(#SVGID_4_)">
			<defs>
				<polygon id="SVGID_23_" points="85.305,54.757 76.791,25.683 79.114,40.902 				"/>
			</defs>
			<clipPath id="SVGID_24_">
				<use xlink:href="#SVGID_23_"  overflow="visible"/>
			</clipPath>
			
				<linearGradient id="SVGID_25_" gradientUnits="userSpaceOnUse" x1="16.2983" y1="611.665" x2="17.2949" y2="611.665" gradientTransform="matrix(8.5403 0 0 -8.5403 -62.3984 5264.0078)">
				<stop  offset="0" style="stop-color:#33A1E2"/>
				<stop  offset="0.1247" style="stop-color:#3197D9"/>
				<stop  offset="0.336" style="stop-color:#2D7CC1"/>
				<stop  offset="0.608" style="stop-color:#25519B"/>
				<stop  offset="0.9274" style="stop-color:#1B1665"/>
				<stop  offset="0.9355" style="stop-color:#1B1464"/>
				<stop  offset="1" style="stop-color:#1B1464"/>
			</linearGradient>
			<rect x="76.791" y="25.683" clip-path="url(#SVGID_24_)" fill="url(#SVGID_25_)" width="8.514" height="29.074"/>
		</g>
		<g clip-path="url(#SVGID_4_)">
			<defs>
				<polygon id="SVGID_26_" points="86.152,110.359 65.149,95.757 65.681,101.437 68.437,103.126 73.125,106 77.552,108.714 				"/>
			</defs>
			<clipPath id="SVGID_27_">
				<use xlink:href="#SVGID_26_"  overflow="visible"/>
			</clipPath>
			
				<linearGradient id="SVGID_28_" gradientUnits="userSpaceOnUse" x1="57.1509" y1="596.999" x2="58.1475" y2="596.999" gradientTransform="matrix(21.0675 0 0 -21.0675 -1138.875 12680.3594)">
				<stop  offset="0" style="stop-color:#33A1E2"/>
				<stop  offset="0.1247" style="stop-color:#3197D9"/>
				<stop  offset="0.336" style="stop-color:#2D7CC1"/>
				<stop  offset="0.608" style="stop-color:#25519B"/>
				<stop  offset="0.9274" style="stop-color:#1B1665"/>
				<stop  offset="0.9355" style="stop-color:#1B1464"/>
				<stop  offset="1" style="stop-color:#1B1464"/>
			</linearGradient>
			<rect x="65.149" y="95.757" clip-path="url(#SVGID_27_)" fill="url(#SVGID_28_)" width="21.003" height="14.602"/>
		</g>
		<g clip-path="url(#SVGID_4_)">
			<defs>
				<polygon id="SVGID_29_" points="69.341,140.432 77.552,108.714 73.125,106 				"/>
			</defs>
			<clipPath id="SVGID_30_">
				<use xlink:href="#SVGID_29_"  overflow="visible"/>
			</clipPath>
			
				<linearGradient id="SVGID_31_" gradientUnits="userSpaceOnUse" x1="13.7529" y1="612.5801" x2="14.75" y2="612.5801" gradientTransform="matrix(8.2349 0 0 -8.2349 -43.9102 5167.7734)">
				<stop  offset="0" style="stop-color:#1B1464"/>
				<stop  offset="1" style="stop-color:#33A1E2"/>
			</linearGradient>
			<rect x="69.341" y="106" clip-path="url(#SVGID_30_)" fill="url(#SVGID_31_)" width="8.21" height="34.432"/>
		</g>
		<g clip-path="url(#SVGID_4_)">
			<defs>
				<polygon id="SVGID_32_" points="69.341,140.432 73.125,106 68.437,103.126 				"/>
			</defs>
			<clipPath id="SVGID_33_">
				<use xlink:href="#SVGID_32_"  overflow="visible"/>
			</clipPath>
			
				<linearGradient id="SVGID_34_" gradientUnits="userSpaceOnUse" x1="-39.751" y1="631.7891" x2="-38.7544" y2="631.7891" gradientTransform="matrix(4.7031 0 0 -4.7031 255.3906 3093.1406)">
				<stop  offset="0" style="stop-color:#1B1464"/>
				<stop  offset="1" style="stop-color:#33A1E2"/>
			</linearGradient>
			<rect x="68.437" y="103.126" clip-path="url(#SVGID_33_)" fill="url(#SVGID_34_)" width="4.688" height="37.306"/>
		</g>
		<g clip-path="url(#SVGID_4_)">
			<defs>
				<polygon id="SVGID_35_" points="69.341,140.432 68.437,103.126 65.681,101.437 				"/>
			</defs>
			<clipPath id="SVGID_36_">
				<use xlink:href="#SVGID_35_"  overflow="visible"/>
			</clipPath>
			
				<linearGradient id="SVGID_37_" gradientUnits="userSpaceOnUse" x1="-74.8213" y1="644.3818" x2="-73.8242" y2="644.3818" gradientTransform="matrix(3.671 0 0 -3.671 340.3496 2486.4707)">
				<stop  offset="0" style="stop-color:#1B1464"/>
				<stop  offset="1" style="stop-color:#33A1E2"/>
			</linearGradient>
			<rect x="65.681" y="101.437" clip-path="url(#SVGID_36_)" fill="url(#SVGID_37_)" width="3.66" height="38.995"/>
		</g>
	</g>
</g>
<path fill="none" stroke="#DAD8D3" stroke-width="0.039" stroke-linecap="round" stroke-linejoin="round" stroke-miterlimit="10" d="
	M99.253,103.442l0.069,0.234c1.305,4.44-1.947,8.889-5.94,8.128l-7.58-1.445l-8.627-1.645l-8.235,31.718l-3.671-38.995l-0.536-5.68
	l-0.439-4.688"/>
<line fill="none" stroke="#DAD8D3" stroke-width="0.039" stroke-linecap="round" stroke-linejoin="round" stroke-miterlimit="10" x1="98.011" y1="99.212" x2="99.253" y2="103.442"/>
<path fill="none" stroke="#DAD8D3" stroke-width="0.039" stroke-linecap="round" stroke-linejoin="round" stroke-miterlimit="10" d="
	M64.708,91.07L64.3,86.72l-0.42-4.486l-0.442-4.699c-0.125-1.336,1.008-2.354,2.088-1.877l20.261,8.955l-2.057-13.481L81.548,56.85
	l-2.434-15.947l-2.323-15.22l8.514,29.074L94,84.449l2.414,8.243h0.001l1.909,6.52"/>
<path fill="none" stroke="#DAD8D3" stroke-width="0.039" stroke-linecap="round" stroke-linejoin="round" stroke-miterlimit="10" d="
	M69.729,78.027l20.088,12.579c0,0,5.217,2.979,4.183-6.157v-0.002"/>
<polyline fill="none" stroke="#DAD8D3" stroke-width="0.039" stroke-linecap="round" stroke-linejoin="round" stroke-miterlimit="10" points="
	89.818,90.606 83.729,71.131 82.485,67.154 "/>
<line fill="none" stroke="#DAD8D3" stroke-width="0.039" stroke-linecap="round" stroke-linejoin="round" stroke-miterlimit="10" x1="93.256" y1="89.186" x2="81.548" y2="56.85"/>
<line fill="none" stroke="#DAD8D3" stroke-width="0.039" stroke-linecap="round" stroke-linejoin="round" stroke-miterlimit="10" x1="85.305" y1="54.757" x2="79.114" y2="40.902"/>
<path fill="none" stroke="#DAD8D3" stroke-width="0.039" stroke-linecap="round" stroke-linejoin="round" stroke-miterlimit="10" d="
	M63.882,86.719L63.882,86.719l28.542,20.125c0,0,7.001,3.741,6.829-3.402v-0.001"/>
<path fill="none" stroke="#DAD8D3" stroke-width="0.039" stroke-linecap="round" stroke-linejoin="round" stroke-miterlimit="10" d="
	M63.879,82.234l27.148,19.389c0.031,0.017,6.691,4.64,7.297-2.409v-0.002"/>
<path fill="none" stroke="#DAD8D3" stroke-width="0.039" stroke-linecap="round" stroke-linejoin="round" stroke-miterlimit="10" d="
	M63.437,77.535l27.516,19.144c0,0,6.438,3.227,5.381-3.954"/>
<polyline fill="none" stroke="#DAD8D3" stroke-width="0.039" stroke-linecap="round" stroke-linejoin="round" stroke-miterlimit="10" points="
	93.382,111.804 64.293,91.07 64.292,91.07 "/>
<line fill="none" stroke="#DAD8D3" stroke-width="0.039" stroke-linecap="round" stroke-linejoin="round" stroke-miterlimit="10" x1="85.802" y1="110.359" x2="64.733" y2="95.757"/>
<polyline fill="none" stroke="#DAD8D3" stroke-width="0.039" stroke-linecap="round" stroke-linejoin="round" stroke-miterlimit="10" points="
	77.175,108.714 72.735,106 68.031,103.126 65.269,101.437 "/>
<polyline fill="none" stroke="#DAD8D3" stroke-width="0.039" stroke-linecap="round" stroke-linejoin="round" stroke-miterlimit="10" points="
	72.735,106 68.939,140.432 68.032,103.126 "/>
</svg>
